<svg width="41" height="47" viewBox="0 0 41 47" fill="none" xmlns="http://www.w3.org/2000/svg">
<path d="M20.5 23.4286C23.6068 23.4286 26.5864 22.1944 28.7833 19.9976C30.9801 17.8007 32.2143 14.8211 32.2143 11.7143C32.2143 8.60747 30.9801 5.62789 28.7833 3.43104C26.5864 1.23418 23.6068 0 20.5 0C17.3932 0 14.4136 1.23418 12.2167 3.43104C10.0199 5.62789 8.78571 8.60747 8.78571 11.7143C8.78571 14.8211 10.0199 17.8007 12.2167 19.9976C14.4136 22.1944 17.3932 23.4286 20.5 23.4286ZM16.3176 27.8215C7.30313 27.8215 0 35.1246 0 44.1391C0 45.64 1.21719 46.8572 2.71808 46.8572H38.2819C39.7828 46.8572 41 45.64 41 44.1391C41 35.1246 33.6969 27.8215 24.6824 27.8215H16.3176Z" fill="#216477"/>
</svg>
