<svg width="1030" height="1075" viewBox="0 0 1030 1075" fill="none" xmlns="http://www.w3.org/2000/svg">
<path d="M35.12 41.1L56.99 97.44C57.83 99.6 58.76 101.1 59.78 101.94C60.86 102.72 61.82 103.14 62.66 103.2V105C60.86 104.88 58.73 104.82 56.27 104.82C53.87 104.76 51.44 104.73 48.98 104.73C46.22 104.73 43.61 104.76 41.15 104.82C38.69 104.82 36.74 104.88 35.3 105V103.2C38.36 103.08 40.28 102.57 41.06 101.67C41.9 100.71 41.72 98.7 40.52 95.64L25.22 53.79L26.84 51.45L13.16 87.09C11.84 90.39 11.03 93.09 10.73 95.19C10.49 97.29 10.64 98.91 11.18 100.05C11.78 101.19 12.71 102 13.97 102.48C15.29 102.9 16.85 103.14 18.65 103.2V105C16.67 104.88 14.78 104.82 12.98 104.82C11.18 104.76 9.35 104.73 7.49 104.73C6.17 104.73 4.91 104.76 3.71 104.82C2.57 104.82 1.55 104.88 0.65 105V103.2C1.91 102.96 3.2 102.15 4.52 100.77C5.84 99.39 7.13 97.05 8.39 93.75L28.91 41.1C29.87 41.16 30.89 41.19 31.97 41.19C33.11 41.19 34.16 41.16 35.12 41.1ZM41.42 79.08V80.88H14.6L15.5 79.08H41.42ZM91.1415 41.28V43.08C89.2215 43.14 87.7515 43.38 86.7315 43.8C85.7715 44.16 85.1415 44.88 84.8415 45.96C84.5415 46.98 84.3915 48.6 84.3915 50.82V95.46C84.3915 97.62 84.5415 99.24 84.8415 100.32C85.2015 101.4 85.8615 102.12 86.8215 102.48C87.7815 102.84 89.2215 103.08 91.1415 103.2V105C89.5215 104.88 87.4815 104.82 85.0215 104.82C82.5615 104.76 80.0715 104.73 77.5515 104.73C74.6115 104.73 71.8815 104.76 69.3615 104.82C66.9015 104.82 64.8915 104.88 63.3315 105V103.2C65.2515 103.08 66.6915 102.84 67.6515 102.48C68.6115 102.12 69.2415 101.4 69.5415 100.32C69.9015 99.24 70.0815 97.62 70.0815 95.46V50.82C70.0815 48.6 69.9015 46.98 69.5415 45.96C69.2415 44.88 68.5815 44.16 67.5615 43.8C66.6015 43.38 65.1915 43.14 63.3315 43.08V41.28C64.8915 41.34 66.9015 41.4 69.3615 41.46C71.8815 41.52 74.6115 41.55 77.5515 41.55C80.0715 41.55 82.5615 41.52 85.0215 41.46C87.4815 41.4 89.5215 41.34 91.1415 41.28Z" fill="#FF9900" fill-opacity="0.09"/>
<path d="M431.12 41.1L452.99 97.44C453.83 99.6 454.76 101.1 455.78 101.94C456.86 102.72 457.82 103.14 458.66 103.2V105C456.86 104.88 454.73 104.82 452.27 104.82C449.87 104.76 447.44 104.73 444.98 104.73C442.22 104.73 439.61 104.76 437.15 104.82C434.69 104.82 432.74 104.88 431.3 105V103.2C434.36 103.08 436.28 102.57 437.06 101.67C437.9 100.71 437.72 98.7 436.52 95.64L421.22 53.79L422.84 51.45L409.16 87.09C407.84 90.39 407.03 93.09 406.73 95.19C406.49 97.29 406.64 98.91 407.18 100.05C407.78 101.19 408.71 102 409.97 102.48C411.29 102.9 412.85 103.14 414.65 103.2V105C412.67 104.88 410.78 104.82 408.98 104.82C407.18 104.76 405.35 104.73 403.49 104.73C402.17 104.73 400.91 104.76 399.71 104.82C398.57 104.82 397.55 104.88 396.65 105V103.2C397.91 102.96 399.2 102.15 400.52 100.77C401.84 99.39 403.13 97.05 404.39 93.75L424.91 41.1C425.87 41.16 426.89 41.19 427.97 41.19C429.11 41.19 430.16 41.16 431.12 41.1ZM437.42 79.08V80.88H410.6L411.5 79.08H437.42ZM487.141 41.28V43.08C485.221 43.14 483.751 43.38 482.731 43.8C481.771 44.16 481.141 44.88 480.841 45.96C480.541 46.98 480.391 48.6 480.391 50.82V95.46C480.391 97.62 480.541 99.24 480.841 100.32C481.201 101.4 481.861 102.12 482.821 102.48C483.781 102.84 485.221 103.08 487.141 103.2V105C485.521 104.88 483.481 104.82 481.021 104.82C478.561 104.76 476.071 104.73 473.551 104.73C470.611 104.73 467.881 104.76 465.361 104.82C462.901 104.82 460.891 104.88 459.331 105V103.2C461.251 103.08 462.691 102.84 463.651 102.48C464.611 102.12 465.241 101.4 465.541 100.32C465.901 99.24 466.081 97.62 466.081 95.46V50.82C466.081 48.6 465.901 46.98 465.541 45.96C465.241 44.88 464.581 44.16 463.561 43.8C462.601 43.38 461.191 43.14 459.331 43.08V41.28C460.891 41.34 462.901 41.4 465.361 41.46C467.881 41.52 470.611 41.55 473.551 41.55C476.071 41.55 478.561 41.52 481.021 41.46C483.481 41.4 485.521 41.34 487.141 41.28Z" fill="#FF9900" fill-opacity="0.09"/>
<path d="M167.12 41.1L188.99 97.44C189.83 99.6 190.76 101.1 191.78 101.94C192.86 102.72 193.82 103.14 194.66 103.2V105C192.86 104.88 190.73 104.82 188.27 104.82C185.87 104.76 183.44 104.73 180.98 104.73C178.22 104.73 175.61 104.76 173.15 104.82C170.69 104.82 168.74 104.88 167.3 105V103.2C170.36 103.08 172.28 102.57 173.06 101.67C173.9 100.71 173.72 98.7 172.52 95.64L157.22 53.79L158.84 51.45L145.16 87.09C143.84 90.39 143.03 93.09 142.73 95.19C142.49 97.29 142.64 98.91 143.18 100.05C143.78 101.19 144.71 102 145.97 102.48C147.29 102.9 148.85 103.14 150.65 103.2V105C148.67 104.88 146.78 104.82 144.98 104.82C143.18 104.76 141.35 104.73 139.49 104.73C138.17 104.73 136.91 104.76 135.71 104.82C134.57 104.82 133.55 104.88 132.65 105V103.2C133.91 102.96 135.2 102.15 136.52 100.77C137.84 99.39 139.13 97.05 140.39 93.75L160.91 41.1C161.87 41.16 162.89 41.19 163.97 41.19C165.11 41.19 166.16 41.16 167.12 41.1ZM173.42 79.08V80.88H146.6L147.5 79.08H173.42ZM223.141 41.28V43.08C221.221 43.14 219.751 43.38 218.731 43.8C217.771 44.16 217.141 44.88 216.841 45.96C216.541 46.98 216.391 48.6 216.391 50.82V95.46C216.391 97.62 216.541 99.24 216.841 100.32C217.201 101.4 217.861 102.12 218.821 102.48C219.781 102.84 221.221 103.08 223.141 103.2V105C221.521 104.88 219.481 104.82 217.021 104.82C214.561 104.76 212.071 104.73 209.551 104.73C206.611 104.73 203.881 104.76 201.361 104.82C198.901 104.82 196.891 104.88 195.331 105V103.2C197.251 103.08 198.691 102.84 199.651 102.48C200.611 102.12 201.241 101.4 201.541 100.32C201.901 99.24 202.081 97.62 202.081 95.46V50.82C202.081 48.6 201.901 46.98 201.541 45.96C201.241 44.88 200.581 44.16 199.561 43.8C198.601 43.38 197.191 43.14 195.331 43.08V41.28C196.891 41.34 198.901 41.4 201.361 41.46C203.881 41.52 206.611 41.55 209.551 41.55C212.071 41.55 214.561 41.52 217.021 41.46C219.481 41.4 221.521 41.34 223.141 41.28Z" fill="#FF9900" fill-opacity="0.09"/>
<path d="M563.12 41.1L584.99 97.44C585.83 99.6 586.76 101.1 587.78 101.94C588.86 102.72 589.82 103.14 590.66 103.2V105C588.86 104.88 586.73 104.82 584.27 104.82C581.87 104.76 579.44 104.73 576.98 104.73C574.22 104.73 571.61 104.76 569.15 104.82C566.69 104.82 564.74 104.88 563.3 105V103.2C566.36 103.08 568.28 102.57 569.06 101.67C569.9 100.71 569.72 98.7 568.52 95.64L553.22 53.79L554.84 51.45L541.16 87.09C539.84 90.39 539.03 93.09 538.73 95.19C538.49 97.29 538.64 98.91 539.18 100.05C539.78 101.19 540.71 102 541.97 102.48C543.29 102.9 544.85 103.14 546.65 103.2V105C544.67 104.88 542.78 104.82 540.98 104.82C539.18 104.76 537.35 104.73 535.49 104.73C534.17 104.73 532.91 104.76 531.71 104.82C530.57 104.82 529.55 104.88 528.65 105V103.2C529.91 102.96 531.2 102.15 532.52 100.77C533.84 99.39 535.13 97.05 536.39 93.75L556.91 41.1C557.87 41.16 558.89 41.19 559.97 41.19C561.11 41.19 562.16 41.16 563.12 41.1ZM569.42 79.08V80.88H542.6L543.5 79.08H569.42ZM619.141 41.28V43.08C617.221 43.14 615.751 43.38 614.731 43.8C613.771 44.16 613.141 44.88 612.841 45.96C612.541 46.98 612.391 48.6 612.391 50.82V95.46C612.391 97.62 612.541 99.24 612.841 100.32C613.201 101.4 613.861 102.12 614.821 102.48C615.781 102.84 617.221 103.08 619.141 103.2V105C617.521 104.88 615.481 104.82 613.021 104.82C610.561 104.76 608.071 104.73 605.551 104.73C602.611 104.73 599.881 104.76 597.361 104.82C594.901 104.82 592.891 104.88 591.331 105V103.2C593.251 103.08 594.691 102.84 595.651 102.48C596.611 102.12 597.241 101.4 597.541 100.32C597.901 99.24 598.081 97.62 598.081 95.46V50.82C598.081 48.6 597.901 46.98 597.541 45.96C597.241 44.88 596.581 44.16 595.561 43.8C594.601 43.38 593.191 43.14 591.331 43.08V41.28C592.891 41.34 594.901 41.4 597.361 41.46C599.881 41.52 602.611 41.55 605.551 41.55C608.071 41.55 610.561 41.52 613.021 41.46C615.481 41.4 617.521 41.34 619.141 41.28Z" fill="#FF9900" fill-opacity="0.09"/>
<path d="M299.12 41.1L320.99 97.44C321.83 99.6 322.76 101.1 323.78 101.94C324.86 102.72 325.82 103.14 326.66 103.2V105C324.86 104.88 322.73 104.82 320.27 104.82C317.87 104.76 315.44 104.73 312.98 104.73C310.22 104.73 307.61 104.76 305.15 104.82C302.69 104.82 300.74 104.88 299.3 105V103.2C302.36 103.08 304.28 102.57 305.06 101.67C305.9 100.71 305.72 98.7 304.52 95.64L289.22 53.79L290.84 51.45L277.16 87.09C275.84 90.39 275.03 93.09 274.73 95.19C274.49 97.29 274.64 98.91 275.18 100.05C275.78 101.19 276.71 102 277.97 102.48C279.29 102.9 280.85 103.14 282.65 103.2V105C280.67 104.88 278.78 104.82 276.98 104.82C275.18 104.76 273.35 104.73 271.49 104.73C270.17 104.73 268.91 104.76 267.71 104.82C266.57 104.82 265.55 104.88 264.65 105V103.2C265.91 102.96 267.2 102.15 268.52 100.77C269.84 99.39 271.13 97.05 272.39 93.75L292.91 41.1C293.87 41.16 294.89 41.19 295.97 41.19C297.11 41.19 298.16 41.16 299.12 41.1ZM305.42 79.08V80.88H278.6L279.5 79.08H305.42ZM355.141 41.28V43.08C353.221 43.14 351.751 43.38 350.731 43.8C349.771 44.16 349.141 44.88 348.841 45.96C348.541 46.98 348.391 48.6 348.391 50.82V95.46C348.391 97.62 348.541 99.24 348.841 100.32C349.201 101.4 349.861 102.12 350.821 102.48C351.781 102.84 353.221 103.08 355.141 103.2V105C353.521 104.88 351.481 104.82 349.021 104.82C346.561 104.76 344.071 104.73 341.551 104.73C338.611 104.73 335.881 104.76 333.361 104.82C330.901 104.82 328.891 104.88 327.331 105V103.2C329.251 103.08 330.691 102.84 331.651 102.48C332.611 102.12 333.241 101.4 333.541 100.32C333.901 99.24 334.081 97.62 334.081 95.46V50.82C334.081 48.6 333.901 46.98 333.541 45.96C333.241 44.88 332.581 44.16 331.561 43.8C330.601 43.38 329.191 43.14 327.331 43.08V41.28C328.891 41.34 330.901 41.4 333.361 41.46C335.881 41.52 338.611 41.55 341.551 41.55C344.071 41.55 346.561 41.52 349.021 41.46C351.481 41.4 353.521 41.34 355.141 41.28Z" fill="#FF9900" fill-opacity="0.09"/>
<path d="M695.12 41.1L716.99 97.44C717.83 99.6 718.76 101.1 719.78 101.94C720.86 102.72 721.82 103.14 722.66 103.2V105C720.86 104.88 718.73 104.82 716.27 104.82C713.87 104.76 711.44 104.73 708.98 104.73C706.22 104.73 703.61 104.76 701.15 104.82C698.69 104.82 696.74 104.88 695.3 105V103.2C698.36 103.08 700.28 102.57 701.06 101.67C701.9 100.71 701.72 98.7 700.52 95.64L685.22 53.79L686.84 51.45L673.16 87.09C671.84 90.39 671.03 93.09 670.73 95.19C670.49 97.29 670.64 98.91 671.18 100.05C671.78 101.19 672.71 102 673.97 102.48C675.29 102.9 676.85 103.14 678.65 103.2V105C676.67 104.88 674.78 104.82 672.98 104.82C671.18 104.76 669.35 104.73 667.49 104.73C666.17 104.73 664.91 104.76 663.71 104.82C662.57 104.82 661.55 104.88 660.65 105V103.2C661.91 102.96 663.2 102.15 664.52 100.77C665.84 99.39 667.13 97.05 668.39 93.75L688.91 41.1C689.87 41.16 690.89 41.19 691.97 41.19C693.11 41.19 694.16 41.16 695.12 41.1ZM701.42 79.08V80.88H674.6L675.5 79.08H701.42ZM751.141 41.28V43.08C749.221 43.14 747.751 43.38 746.731 43.8C745.771 44.16 745.141 44.88 744.841 45.96C744.541 46.98 744.391 48.6 744.391 50.82V95.46C744.391 97.62 744.541 99.24 744.841 100.32C745.201 101.4 745.861 102.12 746.821 102.48C747.781 102.84 749.221 103.08 751.141 103.2V105C749.521 104.88 747.481 104.82 745.021 104.82C742.561 104.76 740.071 104.73 737.551 104.73C734.611 104.73 731.881 104.76 729.361 104.82C726.901 104.82 724.891 104.88 723.331 105V103.2C725.251 103.08 726.691 102.84 727.651 102.48C728.611 102.12 729.241 101.4 729.541 100.32C729.901 99.24 730.081 97.62 730.081 95.46V50.82C730.081 48.6 729.901 46.98 729.541 45.96C729.241 44.88 728.581 44.16 727.561 43.8C726.601 43.38 725.191 43.14 723.331 43.08V41.28C724.891 41.34 726.901 41.4 729.361 41.46C731.881 41.52 734.611 41.55 737.551 41.55C740.071 41.55 742.561 41.52 745.021 41.46C747.481 41.4 749.521 41.34 751.141 41.28Z" fill="#FF9900" fill-opacity="0.09"/>
<path d="M827.12 41.1L848.99 97.44C849.83 99.6 850.76 101.1 851.78 101.94C852.86 102.72 853.82 103.14 854.66 103.2V105C852.86 104.88 850.73 104.82 848.27 104.82C845.87 104.76 843.44 104.73 840.98 104.73C838.22 104.73 835.61 104.76 833.15 104.82C830.69 104.82 828.74 104.88 827.3 105V103.2C830.36 103.08 832.28 102.57 833.06 101.67C833.9 100.71 833.72 98.7 832.52 95.64L817.22 53.79L818.84 51.45L805.16 87.09C803.84 90.39 803.03 93.09 802.73 95.19C802.49 97.29 802.64 98.91 803.18 100.05C803.78 101.19 804.71 102 805.97 102.48C807.29 102.9 808.85 103.14 810.65 103.2V105C808.67 104.88 806.78 104.82 804.98 104.82C803.18 104.76 801.35 104.73 799.49 104.73C798.17 104.73 796.91 104.76 795.71 104.82C794.57 104.82 793.55 104.88 792.65 105V103.2C793.91 102.96 795.2 102.15 796.52 100.77C797.84 99.39 799.13 97.05 800.39 93.75L820.91 41.1C821.87 41.16 822.89 41.19 823.97 41.19C825.11 41.19 826.16 41.16 827.12 41.1ZM833.42 79.08V80.88H806.6L807.5 79.08H833.42ZM883.141 41.28V43.08C881.221 43.14 879.751 43.38 878.731 43.8C877.771 44.16 877.141 44.88 876.841 45.96C876.541 46.98 876.391 48.6 876.391 50.82V95.46C876.391 97.62 876.541 99.24 876.841 100.32C877.201 101.4 877.861 102.12 878.821 102.48C879.781 102.84 881.221 103.08 883.141 103.2V105C881.521 104.88 879.481 104.82 877.021 104.82C874.561 104.76 872.071 104.73 869.551 104.73C866.611 104.73 863.881 104.76 861.361 104.82C858.901 104.82 856.891 104.88 855.331 105V103.2C857.251 103.08 858.691 102.84 859.651 102.48C860.611 102.12 861.241 101.4 861.541 100.32C861.901 99.24 862.081 97.62 862.081 95.46V50.82C862.081 48.6 861.901 46.98 861.541 45.96C861.241 44.88 860.581 44.16 859.561 43.8C858.601 43.38 857.191 43.14 855.331 43.08V41.28C856.891 41.34 858.901 41.4 861.361 41.46C863.881 41.52 866.611 41.55 869.551 41.55C872.071 41.55 874.561 41.52 877.021 41.46C879.481 41.4 881.521 41.34 883.141 41.28Z" fill="#FF9900" fill-opacity="0.09"/>
<path d="M959.12 41.1L980.99 97.44C981.83 99.6 982.76 101.1 983.78 101.94C984.86 102.72 985.82 103.14 986.66 103.2V105C984.86 104.88 982.73 104.82 980.27 104.82C977.87 104.76 975.44 104.73 972.98 104.73C970.22 104.73 967.61 104.76 965.15 104.82C962.69 104.82 960.74 104.88 959.3 105V103.2C962.36 103.08 964.28 102.57 965.06 101.67C965.9 100.71 965.72 98.7 964.52 95.64L949.22 53.79L950.84 51.45L937.16 87.09C935.84 90.39 935.03 93.09 934.73 95.19C934.49 97.29 934.64 98.91 935.18 100.05C935.78 101.19 936.71 102 937.97 102.48C939.29 102.9 940.85 103.14 942.65 103.2V105C940.67 104.88 938.78 104.82 936.98 104.82C935.18 104.76 933.35 104.73 931.49 104.73C930.17 104.73 928.91 104.76 927.71 104.82C926.57 104.82 925.55 104.88 924.65 105V103.2C925.91 102.96 927.2 102.15 928.52 100.77C929.84 99.39 931.13 97.05 932.39 93.75L952.91 41.1C953.87 41.16 954.89 41.19 955.97 41.19C957.11 41.19 958.16 41.16 959.12 41.1ZM965.42 79.08V80.88H938.6L939.5 79.08H965.42ZM1015.14 41.28V43.08C1013.22 43.14 1011.75 43.38 1010.73 43.8C1009.77 44.16 1009.14 44.88 1008.84 45.96C1008.54 46.98 1008.39 48.6 1008.39 50.82V95.46C1008.39 97.62 1008.54 99.24 1008.84 100.32C1009.2 101.4 1009.86 102.12 1010.82 102.48C1011.78 102.84 1013.22 103.08 1015.14 103.2V105C1013.52 104.88 1011.48 104.82 1009.02 104.82C1006.56 104.76 1004.07 104.73 1001.55 104.73C998.611 104.73 995.881 104.76 993.361 104.82C990.901 104.82 988.891 104.88 987.331 105V103.2C989.251 103.08 990.691 102.84 991.651 102.48C992.611 102.12 993.241 101.4 993.541 100.32C993.901 99.24 994.081 97.62 994.081 95.46V50.82C994.081 48.6 993.901 46.98 993.541 45.96C993.241 44.88 992.581 44.16 991.561 43.8C990.601 43.38 989.191 43.14 987.331 43.08V41.28C988.891 41.34 990.901 41.4 993.361 41.46C995.881 41.52 998.611 41.55 1001.55 41.55C1004.07 41.55 1006.56 41.52 1009.02 41.46C1011.48 41.4 1013.52 41.34 1015.14 41.28Z" fill="#FF9900" fill-opacity="0.09"/>
<path d="M431.12 176.1L452.99 232.44C453.83 234.6 454.76 236.1 455.78 236.94C456.86 237.72 457.82 238.14 458.66 238.2V240C456.86 239.88 454.73 239.82 452.27 239.82C449.87 239.76 447.44 239.73 444.98 239.73C442.22 239.73 439.61 239.76 437.15 239.82C434.69 239.82 432.74 239.88 431.3 240V238.2C434.36 238.08 436.28 237.57 437.06 236.67C437.9 235.71 437.72 233.7 436.52 230.64L421.22 188.79L422.84 186.45L409.16 222.09C407.84 225.39 407.03 228.09 406.73 230.19C406.49 232.29 406.64 233.91 407.18 235.05C407.78 236.19 408.71 237 409.97 237.48C411.29 237.9 412.85 238.14 414.65 238.2V240C412.67 239.88 410.78 239.82 408.98 239.82C407.18 239.76 405.35 239.73 403.49 239.73C402.17 239.73 400.91 239.76 399.71 239.82C398.57 239.82 397.55 239.88 396.65 240V238.2C397.91 237.96 399.2 237.15 400.52 235.77C401.84 234.39 403.13 232.05 404.39 228.75L424.91 176.1C425.87 176.16 426.89 176.19 427.97 176.19C429.11 176.19 430.16 176.16 431.12 176.1ZM437.42 214.08V215.88H410.6L411.5 214.08H437.42ZM487.141 176.28V178.08C485.221 178.14 483.751 178.38 482.731 178.8C481.771 179.16 481.141 179.88 480.841 180.96C480.541 181.98 480.391 183.6 480.391 185.82V230.46C480.391 232.62 480.541 234.24 480.841 235.32C481.201 236.4 481.861 237.12 482.821 237.48C483.781 237.84 485.221 238.08 487.141 238.2V240C485.521 239.88 483.481 239.82 481.021 239.82C478.561 239.76 476.071 239.73 473.551 239.73C470.611 239.73 467.881 239.76 465.361 239.82C462.901 239.82 460.891 239.88 459.331 240V238.2C461.251 238.08 462.691 237.84 463.651 237.48C464.611 237.12 465.241 236.4 465.541 235.32C465.901 234.24 466.081 232.62 466.081 230.46V185.82C466.081 183.6 465.901 181.98 465.541 180.96C465.241 179.88 464.581 179.16 463.561 178.8C462.601 178.38 461.191 178.14 459.331 178.08V176.28C460.891 176.34 462.901 176.4 465.361 176.46C467.881 176.52 470.611 176.55 473.551 176.55C476.071 176.55 478.561 176.52 481.021 176.46C483.481 176.4 485.521 176.34 487.141 176.28Z" fill="#FF9900" fill-opacity="0.09"/>
<path d="M167.12 176.1L188.99 232.44C189.83 234.6 190.76 236.1 191.78 236.94C192.86 237.72 193.82 238.14 194.66 238.2V240C192.86 239.88 190.73 239.82 188.27 239.82C185.87 239.76 183.44 239.73 180.98 239.73C178.22 239.73 175.61 239.76 173.15 239.82C170.69 239.82 168.74 239.88 167.3 240V238.2C170.36 238.08 172.28 237.57 173.06 236.67C173.9 235.71 173.72 233.7 172.52 230.64L157.22 188.79L158.84 186.45L145.16 222.09C143.84 225.39 143.03 228.09 142.73 230.19C142.49 232.29 142.64 233.91 143.18 235.05C143.78 236.19 144.71 237 145.97 237.48C147.29 237.9 148.85 238.14 150.65 238.2V240C148.67 239.88 146.78 239.82 144.98 239.82C143.18 239.76 141.35 239.73 139.49 239.73C138.17 239.73 136.91 239.76 135.71 239.82C134.57 239.82 133.55 239.88 132.65 240V238.2C133.91 237.96 135.2 237.15 136.52 235.77C137.84 234.39 139.13 232.05 140.39 228.75L160.91 176.1C161.87 176.16 162.89 176.19 163.97 176.19C165.11 176.19 166.16 176.16 167.12 176.1ZM173.42 214.08V215.88H146.6L147.5 214.08H173.42ZM223.141 176.28V178.08C221.221 178.14 219.751 178.38 218.731 178.8C217.771 179.16 217.141 179.88 216.841 180.96C216.541 181.98 216.391 183.6 216.391 185.82V230.46C216.391 232.62 216.541 234.24 216.841 235.32C217.201 236.4 217.861 237.12 218.821 237.48C219.781 237.84 221.221 238.08 223.141 238.2V240C221.521 239.88 219.481 239.82 217.021 239.82C214.561 239.76 212.071 239.73 209.551 239.73C206.611 239.73 203.881 239.76 201.361 239.82C198.901 239.82 196.891 239.88 195.331 240V238.2C197.251 238.08 198.691 237.84 199.651 237.48C200.611 237.12 201.241 236.4 201.541 235.32C201.901 234.24 202.081 232.62 202.081 230.46V185.82C202.081 183.6 201.901 181.98 201.541 180.96C201.241 179.88 200.581 179.16 199.561 178.8C198.601 178.38 197.191 178.14 195.331 178.08V176.28C196.891 176.34 198.901 176.4 201.361 176.46C203.881 176.52 206.611 176.55 209.551 176.55C212.071 176.55 214.561 176.52 217.021 176.46C219.481 176.4 221.521 176.34 223.141 176.28Z" fill="#FF9900" fill-opacity="0.09"/>
<path d="M563.12 176.1L584.99 232.44C585.83 234.6 586.76 236.1 587.78 236.94C588.86 237.72 589.82 238.14 590.66 238.2V240C588.86 239.88 586.73 239.82 584.27 239.82C581.87 239.76 579.44 239.73 576.98 239.73C574.22 239.73 571.61 239.76 569.15 239.82C566.69 239.82 564.74 239.88 563.3 240V238.2C566.36 238.08 568.28 237.57 569.06 236.67C569.9 235.71 569.72 233.7 568.52 230.64L553.22 188.79L554.84 186.45L541.16 222.09C539.84 225.39 539.03 228.09 538.73 230.19C538.49 232.29 538.64 233.91 539.18 235.05C539.78 236.19 540.71 237 541.97 237.48C543.29 237.9 544.85 238.14 546.65 238.2V240C544.67 239.88 542.78 239.82 540.98 239.82C539.18 239.76 537.35 239.73 535.49 239.73C534.17 239.73 532.91 239.76 531.71 239.82C530.57 239.82 529.55 239.88 528.65 240V238.2C529.91 237.96 531.2 237.15 532.52 235.77C533.84 234.39 535.13 232.05 536.39 228.75L556.91 176.1C557.87 176.16 558.89 176.19 559.97 176.19C561.11 176.19 562.16 176.16 563.12 176.1ZM569.42 214.08V215.88H542.6L543.5 214.08H569.42ZM619.141 176.28V178.08C617.221 178.14 615.751 178.38 614.731 178.8C613.771 179.16 613.141 179.88 612.841 180.96C612.541 181.98 612.391 183.6 612.391 185.82V230.46C612.391 232.62 612.541 234.24 612.841 235.32C613.201 236.4 613.861 237.12 614.821 237.48C615.781 237.84 617.221 238.08 619.141 238.2V240C617.521 239.88 615.481 239.82 613.021 239.82C610.561 239.76 608.071 239.73 605.551 239.73C602.611 239.73 599.881 239.76 597.361 239.82C594.901 239.82 592.891 239.88 591.331 240V238.2C593.251 238.08 594.691 237.84 595.651 237.48C596.611 237.12 597.241 236.4 597.541 235.32C597.901 234.24 598.081 232.62 598.081 230.46V185.82C598.081 183.6 597.901 181.98 597.541 180.96C597.241 179.88 596.581 179.16 595.561 178.8C594.601 178.38 593.191 178.14 591.331 178.08V176.28C592.891 176.34 594.901 176.4 597.361 176.46C599.881 176.52 602.611 176.55 605.551 176.55C608.071 176.55 610.561 176.52 613.021 176.46C615.481 176.4 617.521 176.34 619.141 176.28Z" fill="#FF9900" fill-opacity="0.09"/>
<path d="M299.12 176.1L320.99 232.44C321.83 234.6 322.76 236.1 323.78 236.94C324.86 237.72 325.82 238.14 326.66 238.2V240C324.86 239.88 322.73 239.82 320.27 239.82C317.87 239.76 315.44 239.73 312.98 239.73C310.22 239.73 307.61 239.76 305.15 239.82C302.69 239.82 300.74 239.88 299.3 240V238.2C302.36 238.08 304.28 237.57 305.06 236.67C305.9 235.71 305.72 233.7 304.52 230.64L289.22 188.79L290.84 186.45L277.16 222.09C275.84 225.39 275.03 228.09 274.73 230.19C274.49 232.29 274.64 233.91 275.18 235.05C275.78 236.19 276.71 237 277.97 237.48C279.29 237.9 280.85 238.14 282.65 238.2V240C280.67 239.88 278.78 239.82 276.98 239.82C275.18 239.76 273.35 239.73 271.49 239.73C270.17 239.73 268.91 239.76 267.71 239.82C266.57 239.82 265.55 239.88 264.65 240V238.2C265.91 237.96 267.2 237.15 268.52 235.77C269.84 234.39 271.13 232.05 272.39 228.75L292.91 176.1C293.87 176.16 294.89 176.19 295.97 176.19C297.11 176.19 298.16 176.16 299.12 176.1ZM305.42 214.08V215.88H278.6L279.5 214.08H305.42ZM355.141 176.28V178.08C353.221 178.14 351.751 178.38 350.731 178.8C349.771 179.16 349.141 179.88 348.841 180.96C348.541 181.98 348.391 183.6 348.391 185.82V230.46C348.391 232.62 348.541 234.24 348.841 235.32C349.201 236.4 349.861 237.12 350.821 237.48C351.781 237.84 353.221 238.08 355.141 238.2V240C353.521 239.88 351.481 239.82 349.021 239.82C346.561 239.76 344.071 239.73 341.551 239.73C338.611 239.73 335.881 239.76 333.361 239.82C330.901 239.82 328.891 239.88 327.331 240V238.2C329.251 238.08 330.691 237.84 331.651 237.48C332.611 237.12 333.241 236.4 333.541 235.32C333.901 234.24 334.081 232.62 334.081 230.46V185.82C334.081 183.6 333.901 181.98 333.541 180.96C333.241 179.88 332.581 179.16 331.561 178.8C330.601 178.38 329.191 178.14 327.331 178.08V176.28C328.891 176.34 330.901 176.4 333.361 176.46C335.881 176.52 338.611 176.55 341.551 176.55C344.071 176.55 346.561 176.52 349.021 176.46C351.481 176.4 353.521 176.34 355.141 176.28Z" fill="#FF9900" fill-opacity="0.09"/>
<path d="M695.12 176.1L716.99 232.44C717.83 234.6 718.76 236.1 719.78 236.94C720.86 237.72 721.82 238.14 722.66 238.2V240C720.86 239.88 718.73 239.82 716.27 239.82C713.87 239.76 711.44 239.73 708.98 239.73C706.22 239.73 703.61 239.76 701.15 239.82C698.69 239.82 696.74 239.88 695.3 240V238.2C698.36 238.08 700.28 237.57 701.06 236.67C701.9 235.71 701.72 233.7 700.52 230.64L685.22 188.79L686.84 186.45L673.16 222.09C671.84 225.39 671.03 228.09 670.73 230.19C670.49 232.29 670.64 233.91 671.18 235.05C671.78 236.19 672.71 237 673.97 237.48C675.29 237.9 676.85 238.14 678.65 238.2V240C676.67 239.88 674.78 239.82 672.98 239.82C671.18 239.76 669.35 239.73 667.49 239.73C666.17 239.73 664.91 239.76 663.71 239.82C662.57 239.82 661.55 239.88 660.65 240V238.2C661.91 237.96 663.2 237.15 664.52 235.77C665.84 234.39 667.13 232.05 668.39 228.75L688.91 176.1C689.87 176.16 690.89 176.19 691.97 176.19C693.11 176.19 694.16 176.16 695.12 176.1ZM701.42 214.08V215.88H674.6L675.5 214.08H701.42ZM751.141 176.28V178.08C749.221 178.14 747.751 178.38 746.731 178.8C745.771 179.16 745.141 179.88 744.841 180.96C744.541 181.98 744.391 183.6 744.391 185.82V230.46C744.391 232.62 744.541 234.24 744.841 235.32C745.201 236.4 745.861 237.12 746.821 237.48C747.781 237.84 749.221 238.08 751.141 238.2V240C749.521 239.88 747.481 239.82 745.021 239.82C742.561 239.76 740.071 239.73 737.551 239.73C734.611 239.73 731.881 239.76 729.361 239.82C726.901 239.82 724.891 239.88 723.331 240V238.2C725.251 238.08 726.691 237.84 727.651 237.48C728.611 237.12 729.241 236.4 729.541 235.32C729.901 234.24 730.081 232.62 730.081 230.46V185.82C730.081 183.6 729.901 181.98 729.541 180.96C729.241 179.88 728.581 179.16 727.561 178.8C726.601 178.38 725.191 178.14 723.331 178.08V176.28C724.891 176.34 726.901 176.4 729.361 176.46C731.881 176.52 734.611 176.55 737.551 176.55C740.071 176.55 742.561 176.52 745.021 176.46C747.481 176.4 749.521 176.34 751.141 176.28Z" fill="#FF9900" fill-opacity="0.09"/>
<path d="M827.12 176.1L848.99 232.44C849.83 234.6 850.76 236.1 851.78 236.94C852.86 237.72 853.82 238.14 854.66 238.2V240C852.86 239.88 850.73 239.82 848.27 239.82C845.87 239.76 843.44 239.73 840.98 239.73C838.22 239.73 835.61 239.76 833.15 239.82C830.69 239.82 828.74 239.88 827.3 240V238.2C830.36 238.08 832.28 237.57 833.06 236.67C833.9 235.71 833.72 233.7 832.52 230.64L817.22 188.79L818.84 186.45L805.16 222.09C803.84 225.39 803.03 228.09 802.73 230.19C802.49 232.29 802.64 233.91 803.18 235.05C803.78 236.19 804.71 237 805.97 237.48C807.29 237.9 808.85 238.14 810.65 238.2V240C808.67 239.88 806.78 239.82 804.98 239.82C803.18 239.76 801.35 239.73 799.49 239.73C798.17 239.73 796.91 239.76 795.71 239.82C794.57 239.82 793.55 239.88 792.65 240V238.2C793.91 237.96 795.2 237.15 796.52 235.77C797.84 234.39 799.13 232.05 800.39 228.75L820.91 176.1C821.87 176.16 822.89 176.19 823.97 176.19C825.11 176.19 826.16 176.16 827.12 176.1ZM833.42 214.08V215.88H806.6L807.5 214.08H833.42ZM883.141 176.28V178.08C881.221 178.14 879.751 178.38 878.731 178.8C877.771 179.16 877.141 179.88 876.841 180.96C876.541 181.98 876.391 183.6 876.391 185.82V230.46C876.391 232.62 876.541 234.24 876.841 235.32C877.201 236.4 877.861 237.12 878.821 237.48C879.781 237.84 881.221 238.08 883.141 238.2V240C881.521 239.88 879.481 239.82 877.021 239.82C874.561 239.76 872.071 239.73 869.551 239.73C866.611 239.73 863.881 239.76 861.361 239.82C858.901 239.82 856.891 239.88 855.331 240V238.2C857.251 238.08 858.691 237.84 859.651 237.48C860.611 237.12 861.241 236.4 861.541 235.32C861.901 234.24 862.081 232.62 862.081 230.46V185.82C862.081 183.6 861.901 181.98 861.541 180.96C861.241 179.88 860.581 179.16 859.561 178.8C858.601 178.38 857.191 178.14 855.331 178.08V176.28C856.891 176.34 858.901 176.4 861.361 176.46C863.881 176.52 866.611 176.55 869.551 176.55C872.071 176.55 874.561 176.52 877.021 176.46C879.481 176.4 881.521 176.34 883.141 176.28Z" fill="#FF9900" fill-opacity="0.09"/>
<path d="M959.12 176.1L980.99 232.44C981.83 234.6 982.76 236.1 983.78 236.94C984.86 237.72 985.82 238.14 986.66 238.2V240C984.86 239.88 982.73 239.82 980.27 239.82C977.87 239.76 975.44 239.73 972.98 239.73C970.22 239.73 967.61 239.76 965.15 239.82C962.69 239.82 960.74 239.88 959.3 240V238.2C962.36 238.08 964.28 237.57 965.06 236.67C965.9 235.71 965.72 233.7 964.52 230.64L949.22 188.79L950.84 186.45L937.16 222.09C935.84 225.39 935.03 228.09 934.73 230.19C934.49 232.29 934.64 233.91 935.18 235.05C935.78 236.19 936.71 237 937.97 237.48C939.29 237.9 940.85 238.14 942.65 238.2V240C940.67 239.88 938.78 239.82 936.98 239.82C935.18 239.76 933.35 239.73 931.49 239.73C930.17 239.73 928.91 239.76 927.71 239.82C926.57 239.82 925.55 239.88 924.65 240V238.2C925.91 237.96 927.2 237.15 928.52 235.77C929.84 234.39 931.13 232.05 932.39 228.75L952.91 176.1C953.87 176.16 954.89 176.19 955.97 176.19C957.11 176.19 958.16 176.16 959.12 176.1ZM965.42 214.08V215.88H938.6L939.5 214.08H965.42ZM1015.14 176.28V178.08C1013.22 178.14 1011.75 178.38 1010.73 178.8C1009.77 179.16 1009.14 179.88 1008.84 180.96C1008.54 181.98 1008.39 183.6 1008.39 185.82V230.46C1008.39 232.62 1008.54 234.24 1008.84 235.32C1009.2 236.4 1009.86 237.12 1010.82 237.48C1011.78 237.84 1013.22 238.08 1015.14 238.2V240C1013.52 239.88 1011.48 239.82 1009.02 239.82C1006.56 239.76 1004.07 239.73 1001.55 239.73C998.611 239.73 995.881 239.76 993.361 239.82C990.901 239.82 988.891 239.88 987.331 240V238.2C989.251 238.08 990.691 237.84 991.651 237.48C992.611 237.12 993.241 236.4 993.541 235.32C993.901 234.24 994.081 232.62 994.081 230.46V185.82C994.081 183.6 993.901 181.98 993.541 180.96C993.241 179.88 992.581 179.16 991.561 178.8C990.601 178.38 989.191 178.14 987.331 178.08V176.28C988.891 176.34 990.901 176.4 993.361 176.46C995.881 176.52 998.611 176.55 1001.55 176.55C1004.07 176.55 1006.56 176.52 1009.02 176.46C1011.48 176.4 1013.52 176.34 1015.14 176.28Z" fill="#FF9900" fill-opacity="0.09"/>
<path d="M431.12 311.1L452.99 367.44C453.83 369.6 454.76 371.1 455.78 371.94C456.86 372.72 457.82 373.14 458.66 373.2V375C456.86 374.88 454.73 374.82 452.27 374.82C449.87 374.76 447.44 374.73 444.98 374.73C442.22 374.73 439.61 374.76 437.15 374.82C434.69 374.82 432.74 374.88 431.3 375V373.2C434.36 373.08 436.28 372.57 437.06 371.67C437.9 370.71 437.72 368.7 436.52 365.64L421.22 323.79L422.84 321.45L409.16 357.09C407.84 360.39 407.03 363.09 406.73 365.19C406.49 367.29 406.64 368.91 407.18 370.05C407.78 371.19 408.71 372 409.97 372.48C411.29 372.9 412.85 373.14 414.65 373.2V375C412.67 374.88 410.78 374.82 408.98 374.82C407.18 374.76 405.35 374.73 403.49 374.73C402.17 374.73 400.91 374.76 399.71 374.82C398.57 374.82 397.55 374.88 396.65 375V373.2C397.91 372.96 399.2 372.15 400.52 370.77C401.84 369.39 403.13 367.05 404.39 363.75L424.91 311.1C425.87 311.16 426.89 311.19 427.97 311.19C429.11 311.19 430.16 311.16 431.12 311.1ZM437.42 349.08V350.88H410.6L411.5 349.08H437.42ZM487.141 311.28V313.08C485.221 313.14 483.751 313.38 482.731 313.8C481.771 314.16 481.141 314.88 480.841 315.96C480.541 316.98 480.391 318.6 480.391 320.82V365.46C480.391 367.62 480.541 369.24 480.841 370.32C481.201 371.4 481.861 372.12 482.821 372.48C483.781 372.84 485.221 373.08 487.141 373.2V375C485.521 374.88 483.481 374.82 481.021 374.82C478.561 374.76 476.071 374.73 473.551 374.73C470.611 374.73 467.881 374.76 465.361 374.82C462.901 374.82 460.891 374.88 459.331 375V373.2C461.251 373.08 462.691 372.84 463.651 372.48C464.611 372.12 465.241 371.4 465.541 370.32C465.901 369.24 466.081 367.62 466.081 365.46V320.82C466.081 318.6 465.901 316.98 465.541 315.96C465.241 314.88 464.581 314.16 463.561 313.8C462.601 313.38 461.191 313.14 459.331 313.08V311.28C460.891 311.34 462.901 311.4 465.361 311.46C467.881 311.52 470.611 311.55 473.551 311.55C476.071 311.55 478.561 311.52 481.021 311.46C483.481 311.4 485.521 311.34 487.141 311.28Z" fill="#FF9900" fill-opacity="0.09"/>
<path d="M563.12 311.1L584.99 367.44C585.83 369.6 586.76 371.1 587.78 371.94C588.86 372.72 589.82 373.14 590.66 373.2V375C588.86 374.88 586.73 374.82 584.27 374.82C581.87 374.76 579.44 374.73 576.98 374.73C574.22 374.73 571.61 374.76 569.15 374.82C566.69 374.82 564.74 374.88 563.3 375V373.2C566.36 373.08 568.28 372.57 569.06 371.67C569.9 370.71 569.72 368.7 568.52 365.64L553.22 323.79L554.84 321.45L541.16 357.09C539.84 360.39 539.03 363.09 538.73 365.19C538.49 367.29 538.64 368.91 539.18 370.05C539.78 371.19 540.71 372 541.97 372.48C543.29 372.9 544.85 373.14 546.65 373.2V375C544.67 374.88 542.78 374.82 540.98 374.82C539.18 374.76 537.35 374.73 535.49 374.73C534.17 374.73 532.91 374.76 531.71 374.82C530.57 374.82 529.55 374.88 528.65 375V373.2C529.91 372.96 531.2 372.15 532.52 370.77C533.84 369.39 535.13 367.05 536.39 363.75L556.91 311.1C557.87 311.16 558.89 311.19 559.97 311.19C561.11 311.19 562.16 311.16 563.12 311.1ZM569.42 349.08V350.88H542.6L543.5 349.08H569.42ZM619.141 311.28V313.08C617.221 313.14 615.751 313.38 614.731 313.8C613.771 314.16 613.141 314.88 612.841 315.96C612.541 316.98 612.391 318.6 612.391 320.82V365.46C612.391 367.62 612.541 369.24 612.841 370.32C613.201 371.4 613.861 372.12 614.821 372.48C615.781 372.84 617.221 373.08 619.141 373.2V375C617.521 374.88 615.481 374.82 613.021 374.82C610.561 374.76 608.071 374.73 605.551 374.73C602.611 374.73 599.881 374.76 597.361 374.82C594.901 374.82 592.891 374.88 591.331 375V373.2C593.251 373.08 594.691 372.84 595.651 372.48C596.611 372.12 597.241 371.4 597.541 370.32C597.901 369.24 598.081 367.62 598.081 365.46V320.82C598.081 318.6 597.901 316.98 597.541 315.96C597.241 314.88 596.581 314.16 595.561 313.8C594.601 313.38 593.191 313.14 591.331 313.08V311.28C592.891 311.34 594.901 311.4 597.361 311.46C599.881 311.52 602.611 311.55 605.551 311.55C608.071 311.55 610.561 311.52 613.021 311.46C615.481 311.4 617.521 311.34 619.141 311.28Z" fill="#FF9900" fill-opacity="0.09"/>
<path d="M299.12 311.1L320.99 367.44C321.83 369.6 322.76 371.1 323.78 371.94C324.86 372.72 325.82 373.14 326.66 373.2V375C324.86 374.88 322.73 374.82 320.27 374.82C317.87 374.76 315.44 374.73 312.98 374.73C310.22 374.73 307.61 374.76 305.15 374.82C302.69 374.82 300.74 374.88 299.3 375V373.2C302.36 373.08 304.28 372.57 305.06 371.67C305.9 370.71 305.72 368.7 304.52 365.64L289.22 323.79L290.84 321.45L277.16 357.09C275.84 360.39 275.03 363.09 274.73 365.19C274.49 367.29 274.64 368.91 275.18 370.05C275.78 371.19 276.71 372 277.97 372.48C279.29 372.9 280.85 373.14 282.65 373.2V375C280.67 374.88 278.78 374.82 276.98 374.82C275.18 374.76 273.35 374.73 271.49 374.73C270.17 374.73 268.91 374.76 267.71 374.82C266.57 374.82 265.55 374.88 264.65 375V373.2C265.91 372.96 267.2 372.15 268.52 370.77C269.84 369.39 271.13 367.05 272.39 363.75L292.91 311.1C293.87 311.16 294.89 311.19 295.97 311.19C297.11 311.19 298.16 311.16 299.12 311.1ZM305.42 349.08V350.88H278.6L279.5 349.08H305.42ZM355.141 311.28V313.08C353.221 313.14 351.751 313.38 350.731 313.8C349.771 314.16 349.141 314.88 348.841 315.96C348.541 316.98 348.391 318.6 348.391 320.82V365.46C348.391 367.62 348.541 369.24 348.841 370.32C349.201 371.4 349.861 372.12 350.821 372.48C351.781 372.84 353.221 373.08 355.141 373.2V375C353.521 374.88 351.481 374.82 349.021 374.82C346.561 374.76 344.071 374.73 341.551 374.73C338.611 374.73 335.881 374.76 333.361 374.82C330.901 374.82 328.891 374.88 327.331 375V373.2C329.251 373.08 330.691 372.84 331.651 372.48C332.611 372.12 333.241 371.4 333.541 370.32C333.901 369.24 334.081 367.62 334.081 365.46V320.82C334.081 318.6 333.901 316.98 333.541 315.96C333.241 314.88 332.581 314.16 331.561 313.8C330.601 313.38 329.191 313.14 327.331 313.08V311.28C328.891 311.34 330.901 311.4 333.361 311.46C335.881 311.52 338.611 311.55 341.551 311.55C344.071 311.55 346.561 311.52 349.021 311.46C351.481 311.4 353.521 311.34 355.141 311.28Z" fill="#FF9900" fill-opacity="0.09"/>
<path d="M695.12 311.1L716.99 367.44C717.83 369.6 718.76 371.1 719.78 371.94C720.86 372.72 721.82 373.14 722.66 373.2V375C720.86 374.88 718.73 374.82 716.27 374.82C713.87 374.76 711.44 374.73 708.98 374.73C706.22 374.73 703.61 374.76 701.15 374.82C698.69 374.82 696.74 374.88 695.3 375V373.2C698.36 373.08 700.28 372.57 701.06 371.67C701.9 370.71 701.72 368.7 700.52 365.64L685.22 323.79L686.84 321.45L673.16 357.09C671.84 360.39 671.03 363.09 670.73 365.19C670.49 367.29 670.64 368.91 671.18 370.05C671.78 371.19 672.71 372 673.97 372.48C675.29 372.9 676.85 373.14 678.65 373.2V375C676.67 374.88 674.78 374.82 672.98 374.82C671.18 374.76 669.35 374.73 667.49 374.73C666.17 374.73 664.91 374.76 663.71 374.82C662.57 374.82 661.55 374.88 660.65 375V373.2C661.91 372.96 663.2 372.15 664.52 370.77C665.84 369.39 667.13 367.05 668.39 363.75L688.91 311.1C689.87 311.16 690.89 311.19 691.97 311.19C693.11 311.19 694.16 311.16 695.12 311.1ZM701.42 349.08V350.88H674.6L675.5 349.08H701.42ZM751.141 311.28V313.08C749.221 313.14 747.751 313.38 746.731 313.8C745.771 314.16 745.141 314.88 744.841 315.96C744.541 316.98 744.391 318.6 744.391 320.82V365.46C744.391 367.62 744.541 369.24 744.841 370.32C745.201 371.4 745.861 372.12 746.821 372.48C747.781 372.84 749.221 373.08 751.141 373.2V375C749.521 374.88 747.481 374.82 745.021 374.82C742.561 374.76 740.071 374.73 737.551 374.73C734.611 374.73 731.881 374.76 729.361 374.82C726.901 374.82 724.891 374.88 723.331 375V373.2C725.251 373.08 726.691 372.84 727.651 372.48C728.611 372.12 729.241 371.4 729.541 370.32C729.901 369.24 730.081 367.62 730.081 365.46V320.82C730.081 318.6 729.901 316.98 729.541 315.96C729.241 314.88 728.581 314.16 727.561 313.8C726.601 313.38 725.191 313.14 723.331 313.08V311.28C724.891 311.34 726.901 311.4 729.361 311.46C731.881 311.52 734.611 311.55 737.551 311.55C740.071 311.55 742.561 311.52 745.021 311.46C747.481 311.4 749.521 311.34 751.141 311.28Z" fill="#FF9900" fill-opacity="0.09"/>
<path d="M827.12 311.1L848.99 367.44C849.83 369.6 850.76 371.1 851.78 371.94C852.86 372.72 853.82 373.14 854.66 373.2V375C852.86 374.88 850.73 374.82 848.27 374.82C845.87 374.76 843.44 374.73 840.98 374.73C838.22 374.73 835.61 374.76 833.15 374.82C830.69 374.82 828.74 374.88 827.3 375V373.2C830.36 373.08 832.28 372.57 833.06 371.67C833.9 370.71 833.72 368.7 832.52 365.64L817.22 323.79L818.84 321.45L805.16 357.09C803.84 360.39 803.03 363.09 802.73 365.19C802.49 367.29 802.64 368.91 803.18 370.05C803.78 371.19 804.71 372 805.97 372.48C807.29 372.9 808.85 373.14 810.65 373.2V375C808.67 374.88 806.78 374.82 804.98 374.82C803.18 374.76 801.35 374.73 799.49 374.73C798.17 374.73 796.91 374.76 795.71 374.82C794.57 374.82 793.55 374.88 792.65 375V373.2C793.91 372.96 795.2 372.15 796.52 370.77C797.84 369.39 799.13 367.05 800.39 363.75L820.91 311.1C821.87 311.16 822.89 311.19 823.97 311.19C825.11 311.19 826.16 311.16 827.12 311.1ZM833.42 349.08V350.88H806.6L807.5 349.08H833.42ZM883.141 311.28V313.08C881.221 313.14 879.751 313.38 878.731 313.8C877.771 314.16 877.141 314.88 876.841 315.96C876.541 316.98 876.391 318.6 876.391 320.82V365.46C876.391 367.62 876.541 369.24 876.841 370.32C877.201 371.4 877.861 372.12 878.821 372.48C879.781 372.84 881.221 373.08 883.141 373.2V375C881.521 374.88 879.481 374.82 877.021 374.82C874.561 374.76 872.071 374.73 869.551 374.73C866.611 374.73 863.881 374.76 861.361 374.82C858.901 374.82 856.891 374.88 855.331 375V373.2C857.251 373.08 858.691 372.84 859.651 372.48C860.611 372.12 861.241 371.4 861.541 370.32C861.901 369.24 862.081 367.62 862.081 365.46V320.82C862.081 318.6 861.901 316.98 861.541 315.96C861.241 314.88 860.581 314.16 859.561 313.8C858.601 313.38 857.191 313.14 855.331 313.08V311.28C856.891 311.34 858.901 311.4 861.361 311.46C863.881 311.52 866.611 311.55 869.551 311.55C872.071 311.55 874.561 311.52 877.021 311.46C879.481 311.4 881.521 311.34 883.141 311.28Z" fill="#FF9900" fill-opacity="0.09"/>
<path d="M959.12 311.1L980.99 367.44C981.83 369.6 982.76 371.1 983.78 371.94C984.86 372.72 985.82 373.14 986.66 373.2V375C984.86 374.88 982.73 374.82 980.27 374.82C977.87 374.76 975.44 374.73 972.98 374.73C970.22 374.73 967.61 374.76 965.15 374.82C962.69 374.82 960.74 374.88 959.3 375V373.2C962.36 373.08 964.28 372.57 965.06 371.67C965.9 370.71 965.72 368.7 964.52 365.64L949.22 323.79L950.84 321.45L937.16 357.09C935.84 360.39 935.03 363.09 934.73 365.19C934.49 367.29 934.64 368.91 935.18 370.05C935.78 371.19 936.71 372 937.97 372.48C939.29 372.9 940.85 373.14 942.65 373.2V375C940.67 374.88 938.78 374.82 936.98 374.82C935.18 374.76 933.35 374.73 931.49 374.73C930.17 374.73 928.91 374.76 927.71 374.82C926.57 374.82 925.55 374.88 924.65 375V373.2C925.91 372.96 927.2 372.15 928.52 370.77C929.84 369.39 931.13 367.05 932.39 363.75L952.91 311.1C953.87 311.16 954.89 311.19 955.97 311.19C957.11 311.19 958.16 311.16 959.12 311.1ZM965.42 349.08V350.88H938.6L939.5 349.08H965.42ZM1015.14 311.28V313.08C1013.22 313.14 1011.75 313.38 1010.73 313.8C1009.77 314.16 1009.14 314.88 1008.84 315.96C1008.54 316.98 1008.39 318.6 1008.39 320.82V365.46C1008.39 367.62 1008.54 369.24 1008.84 370.32C1009.2 371.4 1009.86 372.12 1010.82 372.48C1011.78 372.84 1013.22 373.08 1015.14 373.2V375C1013.52 374.88 1011.48 374.82 1009.02 374.82C1006.56 374.76 1004.07 374.73 1001.55 374.73C998.611 374.73 995.881 374.76 993.361 374.82C990.901 374.82 988.891 374.88 987.331 375V373.2C989.251 373.08 990.691 372.84 991.651 372.48C992.611 372.12 993.241 371.4 993.541 370.32C993.901 369.24 994.081 367.62 994.081 365.46V320.82C994.081 318.6 993.901 316.98 993.541 315.96C993.241 314.88 992.581 314.16 991.561 313.8C990.601 313.38 989.191 313.14 987.331 313.08V311.28C988.891 311.34 990.901 311.4 993.361 311.46C995.881 311.52 998.611 311.55 1001.55 311.55C1004.07 311.55 1006.56 311.52 1009.02 311.46C1011.48 311.4 1013.52 311.34 1015.14 311.28Z" fill="#FF9900" fill-opacity="0.09"/>
<path d="M431.12 446.1L452.99 502.44C453.83 504.6 454.76 506.1 455.78 506.94C456.86 507.72 457.82 508.14 458.66 508.2V510C456.86 509.88 454.73 509.82 452.27 509.82C449.87 509.76 447.44 509.73 444.98 509.73C442.22 509.73 439.61 509.76 437.15 509.82C434.69 509.82 432.74 509.88 431.3 510V508.2C434.36 508.08 436.28 507.57 437.06 506.67C437.9 505.71 437.72 503.7 436.52 500.64L421.22 458.79L422.84 456.45L409.16 492.09C407.84 495.39 407.03 498.09 406.73 500.19C406.49 502.29 406.64 503.91 407.18 505.05C407.78 506.19 408.71 507 409.97 507.48C411.29 507.9 412.85 508.14 414.65 508.2V510C412.67 509.88 410.78 509.82 408.98 509.82C407.18 509.76 405.35 509.73 403.49 509.73C402.17 509.73 400.91 509.76 399.71 509.82C398.57 509.82 397.55 509.88 396.65 510V508.2C397.91 507.96 399.2 507.15 400.52 505.77C401.84 504.39 403.13 502.05 404.39 498.75L424.91 446.1C425.87 446.16 426.89 446.19 427.97 446.19C429.11 446.19 430.16 446.16 431.12 446.1ZM437.42 484.08V485.88H410.6L411.5 484.08H437.42ZM487.141 446.28V448.08C485.221 448.14 483.751 448.38 482.731 448.8C481.771 449.16 481.141 449.88 480.841 450.96C480.541 451.98 480.391 453.6 480.391 455.82V500.46C480.391 502.62 480.541 504.24 480.841 505.32C481.201 506.4 481.861 507.12 482.821 507.48C483.781 507.84 485.221 508.08 487.141 508.2V510C485.521 509.88 483.481 509.82 481.021 509.82C478.561 509.76 476.071 509.73 473.551 509.73C470.611 509.73 467.881 509.76 465.361 509.82C462.901 509.82 460.891 509.88 459.331 510V508.2C461.251 508.08 462.691 507.84 463.651 507.48C464.611 507.12 465.241 506.4 465.541 505.32C465.901 504.24 466.081 502.62 466.081 500.46V455.82C466.081 453.6 465.901 451.98 465.541 450.96C465.241 449.88 464.581 449.16 463.561 448.8C462.601 448.38 461.191 448.14 459.331 448.08V446.28C460.891 446.34 462.901 446.4 465.361 446.46C467.881 446.52 470.611 446.55 473.551 446.55C476.071 446.55 478.561 446.52 481.021 446.46C483.481 446.4 485.521 446.34 487.141 446.28Z" fill="#FF9900" fill-opacity="0.09"/>
<path d="M563.12 446.1L584.99 502.44C585.83 504.6 586.76 506.1 587.78 506.94C588.86 507.72 589.82 508.14 590.66 508.2V510C588.86 509.88 586.73 509.82 584.27 509.82C581.87 509.76 579.44 509.73 576.98 509.73C574.22 509.73 571.61 509.76 569.15 509.82C566.69 509.82 564.74 509.88 563.3 510V508.2C566.36 508.08 568.28 507.57 569.06 506.67C569.9 505.71 569.72 503.7 568.52 500.64L553.22 458.79L554.84 456.45L541.16 492.09C539.84 495.39 539.03 498.09 538.73 500.19C538.49 502.29 538.64 503.91 539.18 505.05C539.78 506.19 540.71 507 541.97 507.48C543.29 507.9 544.85 508.14 546.65 508.2V510C544.67 509.88 542.78 509.82 540.98 509.82C539.18 509.76 537.35 509.73 535.49 509.73C534.17 509.73 532.91 509.76 531.71 509.82C530.57 509.82 529.55 509.88 528.65 510V508.2C529.91 507.96 531.2 507.15 532.52 505.77C533.84 504.39 535.13 502.05 536.39 498.75L556.91 446.1C557.87 446.16 558.89 446.19 559.97 446.19C561.11 446.19 562.16 446.16 563.12 446.1ZM569.42 484.08V485.88H542.6L543.5 484.08H569.42ZM619.141 446.28V448.08C617.221 448.14 615.751 448.38 614.731 448.8C613.771 449.16 613.141 449.88 612.841 450.96C612.541 451.98 612.391 453.6 612.391 455.82V500.46C612.391 502.62 612.541 504.24 612.841 505.32C613.201 506.4 613.861 507.12 614.821 507.48C615.781 507.84 617.221 508.08 619.141 508.2V510C617.521 509.88 615.481 509.82 613.021 509.82C610.561 509.76 608.071 509.73 605.551 509.73C602.611 509.73 599.881 509.76 597.361 509.82C594.901 509.82 592.891 509.88 591.331 510V508.2C593.251 508.08 594.691 507.84 595.651 507.48C596.611 507.12 597.241 506.4 597.541 505.32C597.901 504.24 598.081 502.62 598.081 500.46V455.82C598.081 453.6 597.901 451.98 597.541 450.96C597.241 449.88 596.581 449.16 595.561 448.8C594.601 448.38 593.191 448.14 591.331 448.08V446.28C592.891 446.34 594.901 446.4 597.361 446.46C599.881 446.52 602.611 446.55 605.551 446.55C608.071 446.55 610.561 446.52 613.021 446.46C615.481 446.4 617.521 446.34 619.141 446.28Z" fill="#FF9900" fill-opacity="0.09"/>
<path d="M695.12 446.1L716.99 502.44C717.83 504.6 718.76 506.1 719.78 506.94C720.86 507.72 721.82 508.14 722.66 508.2V510C720.86 509.88 718.73 509.82 716.27 509.82C713.87 509.76 711.44 509.73 708.98 509.73C706.22 509.73 703.61 509.76 701.15 509.82C698.69 509.82 696.74 509.88 695.3 510V508.2C698.36 508.08 700.28 507.57 701.06 506.67C701.9 505.71 701.72 503.7 700.52 500.64L685.22 458.79L686.84 456.45L673.16 492.09C671.84 495.39 671.03 498.09 670.73 500.19C670.49 502.29 670.64 503.91 671.18 505.05C671.78 506.19 672.71 507 673.97 507.48C675.29 507.9 676.85 508.14 678.65 508.2V510C676.67 509.88 674.78 509.82 672.98 509.82C671.18 509.76 669.35 509.73 667.49 509.73C666.17 509.73 664.91 509.76 663.71 509.82C662.57 509.82 661.55 509.88 660.65 510V508.2C661.91 507.96 663.2 507.15 664.52 505.77C665.84 504.39 667.13 502.05 668.39 498.75L688.91 446.1C689.87 446.16 690.89 446.19 691.97 446.19C693.11 446.19 694.16 446.16 695.12 446.1ZM701.42 484.08V485.88H674.6L675.5 484.08H701.42ZM751.141 446.28V448.08C749.221 448.14 747.751 448.38 746.731 448.8C745.771 449.16 745.141 449.88 744.841 450.96C744.541 451.98 744.391 453.6 744.391 455.82V500.46C744.391 502.62 744.541 504.24 744.841 505.32C745.201 506.4 745.861 507.12 746.821 507.48C747.781 507.84 749.221 508.08 751.141 508.2V510C749.521 509.88 747.481 509.82 745.021 509.82C742.561 509.76 740.071 509.73 737.551 509.73C734.611 509.73 731.881 509.76 729.361 509.82C726.901 509.82 724.891 509.88 723.331 510V508.2C725.251 508.08 726.691 507.84 727.651 507.48C728.611 507.12 729.241 506.4 729.541 505.32C729.901 504.24 730.081 502.62 730.081 500.46V455.82C730.081 453.6 729.901 451.98 729.541 450.96C729.241 449.88 728.581 449.16 727.561 448.8C726.601 448.38 725.191 448.14 723.331 448.08V446.28C724.891 446.34 726.901 446.4 729.361 446.46C731.881 446.52 734.611 446.55 737.551 446.55C740.071 446.55 742.561 446.52 745.021 446.46C747.481 446.4 749.521 446.34 751.141 446.28Z" fill="#FF9900" fill-opacity="0.09"/>
<path d="M827.12 446.1L848.99 502.44C849.83 504.6 850.76 506.1 851.78 506.94C852.86 507.72 853.82 508.14 854.66 508.2V510C852.86 509.88 850.73 509.82 848.27 509.82C845.87 509.76 843.44 509.73 840.98 509.73C838.22 509.73 835.61 509.76 833.15 509.82C830.69 509.82 828.74 509.88 827.3 510V508.2C830.36 508.08 832.28 507.57 833.06 506.67C833.9 505.71 833.72 503.7 832.52 500.64L817.22 458.79L818.84 456.45L805.16 492.09C803.84 495.39 803.03 498.09 802.73 500.19C802.49 502.29 802.64 503.91 803.18 505.05C803.78 506.19 804.71 507 805.97 507.48C807.29 507.9 808.85 508.14 810.65 508.2V510C808.67 509.88 806.78 509.82 804.98 509.82C803.18 509.76 801.35 509.73 799.49 509.73C798.17 509.73 796.91 509.76 795.71 509.82C794.57 509.82 793.55 509.88 792.65 510V508.2C793.91 507.96 795.2 507.15 796.52 505.77C797.84 504.39 799.13 502.05 800.39 498.75L820.91 446.1C821.87 446.16 822.89 446.19 823.97 446.19C825.11 446.19 826.16 446.16 827.12 446.1ZM833.42 484.08V485.88H806.6L807.5 484.08H833.42ZM883.141 446.28V448.08C881.221 448.14 879.751 448.38 878.731 448.8C877.771 449.16 877.141 449.88 876.841 450.96C876.541 451.98 876.391 453.6 876.391 455.82V500.46C876.391 502.62 876.541 504.24 876.841 505.32C877.201 506.4 877.861 507.12 878.821 507.48C879.781 507.84 881.221 508.08 883.141 508.2V510C881.521 509.88 879.481 509.82 877.021 509.82C874.561 509.76 872.071 509.73 869.551 509.73C866.611 509.73 863.881 509.76 861.361 509.82C858.901 509.82 856.891 509.88 855.331 510V508.2C857.251 508.08 858.691 507.84 859.651 507.48C860.611 507.12 861.241 506.4 861.541 505.32C861.901 504.24 862.081 502.62 862.081 500.46V455.82C862.081 453.6 861.901 451.98 861.541 450.96C861.241 449.88 860.581 449.16 859.561 448.8C858.601 448.38 857.191 448.14 855.331 448.08V446.28C856.891 446.34 858.901 446.4 861.361 446.46C863.881 446.52 866.611 446.55 869.551 446.55C872.071 446.55 874.561 446.52 877.021 446.46C879.481 446.4 881.521 446.34 883.141 446.28Z" fill="#FF9900" fill-opacity="0.09"/>
<path d="M959.12 446.1L980.99 502.44C981.83 504.6 982.76 506.1 983.78 506.94C984.86 507.72 985.82 508.14 986.66 508.2V510C984.86 509.88 982.73 509.82 980.27 509.82C977.87 509.76 975.44 509.73 972.98 509.73C970.22 509.73 967.61 509.76 965.15 509.82C962.69 509.82 960.74 509.88 959.3 510V508.2C962.36 508.08 964.28 507.57 965.06 506.67C965.9 505.71 965.72 503.7 964.52 500.64L949.22 458.79L950.84 456.45L937.16 492.09C935.84 495.39 935.03 498.09 934.73 500.19C934.49 502.29 934.64 503.91 935.18 505.05C935.78 506.19 936.71 507 937.97 507.48C939.29 507.9 940.85 508.14 942.65 508.2V510C940.67 509.88 938.78 509.82 936.98 509.82C935.18 509.76 933.35 509.73 931.49 509.73C930.17 509.73 928.91 509.76 927.71 509.82C926.57 509.82 925.55 509.88 924.65 510V508.2C925.91 507.96 927.2 507.15 928.52 505.77C929.84 504.39 931.13 502.05 932.39 498.75L952.91 446.1C953.87 446.16 954.89 446.19 955.97 446.19C957.11 446.19 958.16 446.16 959.12 446.1ZM965.42 484.08V485.88H938.6L939.5 484.08H965.42ZM1015.14 446.28V448.08C1013.22 448.14 1011.75 448.38 1010.73 448.8C1009.77 449.16 1009.14 449.88 1008.84 450.96C1008.54 451.98 1008.39 453.6 1008.39 455.82V500.46C1008.39 502.62 1008.54 504.24 1008.84 505.32C1009.2 506.4 1009.86 507.12 1010.82 507.48C1011.78 507.84 1013.22 508.08 1015.14 508.2V510C1013.52 509.88 1011.48 509.82 1009.02 509.82C1006.56 509.76 1004.07 509.73 1001.55 509.73C998.611 509.73 995.881 509.76 993.361 509.82C990.901 509.82 988.891 509.88 987.331 510V508.2C989.251 508.08 990.691 507.84 991.651 507.48C992.611 507.12 993.241 506.4 993.541 505.32C993.901 504.24 994.081 502.62 994.081 500.46V455.82C994.081 453.6 993.901 451.98 993.541 450.96C993.241 449.88 992.581 449.16 991.561 448.8C990.601 448.38 989.191 448.14 987.331 448.08V446.28C988.891 446.34 990.901 446.4 993.361 446.46C995.881 446.52 998.611 446.55 1001.55 446.55C1004.07 446.55 1006.56 446.52 1009.02 446.46C1011.48 446.4 1013.52 446.34 1015.14 446.28Z" fill="#FF9900" fill-opacity="0.09"/>
<path d="M574.12 576.1L595.99 632.44C596.83 634.6 597.76 636.1 598.78 636.94C599.86 637.72 600.82 638.14 601.66 638.2V640C599.86 639.88 597.73 639.82 595.27 639.82C592.87 639.76 590.44 639.73 587.98 639.73C585.22 639.73 582.61 639.76 580.15 639.82C577.69 639.82 575.74 639.88 574.3 640V638.2C577.36 638.08 579.28 637.57 580.06 636.67C580.9 635.71 580.72 633.7 579.52 630.64L564.22 588.79L565.84 586.45L552.16 622.09C550.84 625.39 550.03 628.09 549.73 630.19C549.49 632.29 549.64 633.91 550.18 635.05C550.78 636.19 551.71 637 552.97 637.48C554.29 637.9 555.85 638.14 557.65 638.2V640C555.67 639.88 553.78 639.82 551.98 639.82C550.18 639.76 548.35 639.73 546.49 639.73C545.17 639.73 543.91 639.76 542.71 639.82C541.57 639.82 540.55 639.88 539.65 640V638.2C540.91 637.96 542.2 637.15 543.52 635.77C544.84 634.39 546.13 632.05 547.39 628.75L567.91 576.1C568.87 576.16 569.89 576.19 570.97 576.19C572.11 576.19 573.16 576.16 574.12 576.1ZM580.42 614.08V615.88H553.6L554.5 614.08H580.42ZM630.141 576.28V578.08C628.221 578.14 626.751 578.38 625.731 578.8C624.771 579.16 624.141 579.88 623.841 580.96C623.541 581.98 623.391 583.6 623.391 585.82V630.46C623.391 632.62 623.541 634.24 623.841 635.32C624.201 636.4 624.861 637.12 625.821 637.48C626.781 637.84 628.221 638.08 630.141 638.2V640C628.521 639.88 626.481 639.82 624.021 639.82C621.561 639.76 619.071 639.73 616.551 639.73C613.611 639.73 610.881 639.76 608.361 639.82C605.901 639.82 603.891 639.88 602.331 640V638.2C604.251 638.08 605.691 637.84 606.651 637.48C607.611 637.12 608.241 636.4 608.541 635.32C608.901 634.24 609.081 632.62 609.081 630.46V585.82C609.081 583.6 608.901 581.98 608.541 580.96C608.241 579.88 607.581 579.16 606.561 578.8C605.601 578.38 604.191 578.14 602.331 578.08V576.28C603.891 576.34 605.901 576.4 608.361 576.46C610.881 576.52 613.611 576.55 616.551 576.55C619.071 576.55 621.561 576.52 624.021 576.46C626.481 576.4 628.521 576.34 630.141 576.28Z" fill="#FF9900" fill-opacity="0.09"/>
<path d="M706.12 576.1L727.99 632.44C728.83 634.6 729.76 636.1 730.78 636.94C731.86 637.72 732.82 638.14 733.66 638.2V640C731.86 639.88 729.73 639.82 727.27 639.82C724.87 639.76 722.44 639.73 719.98 639.73C717.22 639.73 714.61 639.76 712.15 639.82C709.69 639.82 707.74 639.88 706.3 640V638.2C709.36 638.08 711.28 637.57 712.06 636.67C712.9 635.71 712.72 633.7 711.52 630.64L696.22 588.79L697.84 586.45L684.16 622.09C682.84 625.39 682.03 628.09 681.73 630.19C681.49 632.29 681.64 633.91 682.18 635.05C682.78 636.19 683.71 637 684.97 637.48C686.29 637.9 687.85 638.14 689.65 638.2V640C687.67 639.88 685.78 639.82 683.98 639.82C682.18 639.76 680.35 639.73 678.49 639.73C677.17 639.73 675.91 639.76 674.71 639.82C673.57 639.82 672.55 639.88 671.65 640V638.2C672.91 637.96 674.2 637.15 675.52 635.77C676.84 634.39 678.13 632.05 679.39 628.75L699.91 576.1C700.87 576.16 701.89 576.19 702.97 576.19C704.11 576.19 705.16 576.16 706.12 576.1ZM712.42 614.08V615.88H685.6L686.5 614.08H712.42ZM762.141 576.28V578.08C760.221 578.14 758.751 578.38 757.731 578.8C756.771 579.16 756.141 579.88 755.841 580.96C755.541 581.98 755.391 583.6 755.391 585.82V630.46C755.391 632.62 755.541 634.24 755.841 635.32C756.201 636.4 756.861 637.12 757.821 637.48C758.781 637.84 760.221 638.08 762.141 638.2V640C760.521 639.88 758.481 639.82 756.021 639.82C753.561 639.76 751.071 639.73 748.551 639.73C745.611 639.73 742.881 639.76 740.361 639.82C737.901 639.82 735.891 639.88 734.331 640V638.2C736.251 638.08 737.691 637.84 738.651 637.48C739.611 637.12 740.241 636.4 740.541 635.32C740.901 634.24 741.081 632.62 741.081 630.46V585.82C741.081 583.6 740.901 581.98 740.541 580.96C740.241 579.88 739.581 579.16 738.561 578.8C737.601 578.38 736.191 578.14 734.331 578.08V576.28C735.891 576.34 737.901 576.4 740.361 576.46C742.881 576.52 745.611 576.55 748.551 576.55C751.071 576.55 753.561 576.52 756.021 576.46C758.481 576.4 760.521 576.34 762.141 576.28Z" fill="#FF9900" fill-opacity="0.09"/>
<path d="M838.12 576.1L859.99 632.44C860.83 634.6 861.76 636.1 862.78 636.94C863.86 637.72 864.82 638.14 865.66 638.2V640C863.86 639.88 861.73 639.82 859.27 639.82C856.87 639.76 854.44 639.73 851.98 639.73C849.22 639.73 846.61 639.76 844.15 639.82C841.69 639.82 839.74 639.88 838.3 640V638.2C841.36 638.08 843.28 637.57 844.06 636.67C844.9 635.71 844.72 633.7 843.52 630.64L828.22 588.79L829.84 586.45L816.16 622.09C814.84 625.39 814.03 628.09 813.73 630.19C813.49 632.29 813.64 633.91 814.18 635.05C814.78 636.19 815.71 637 816.97 637.48C818.29 637.9 819.85 638.14 821.65 638.2V640C819.67 639.88 817.78 639.82 815.98 639.82C814.18 639.76 812.35 639.73 810.49 639.73C809.17 639.73 807.91 639.76 806.71 639.82C805.57 639.82 804.55 639.88 803.65 640V638.2C804.91 637.96 806.2 637.15 807.52 635.77C808.84 634.39 810.13 632.05 811.39 628.75L831.91 576.1C832.87 576.16 833.89 576.19 834.97 576.19C836.11 576.19 837.16 576.16 838.12 576.1ZM844.42 614.08V615.88H817.6L818.5 614.08H844.42ZM894.141 576.28V578.08C892.221 578.14 890.751 578.38 889.731 578.8C888.771 579.16 888.141 579.88 887.841 580.96C887.541 581.98 887.391 583.6 887.391 585.82V630.46C887.391 632.62 887.541 634.24 887.841 635.32C888.201 636.4 888.861 637.12 889.821 637.48C890.781 637.84 892.221 638.08 894.141 638.2V640C892.521 639.88 890.481 639.82 888.021 639.82C885.561 639.76 883.071 639.73 880.551 639.73C877.611 639.73 874.881 639.76 872.361 639.82C869.901 639.82 867.891 639.88 866.331 640V638.2C868.251 638.08 869.691 637.84 870.651 637.48C871.611 637.12 872.241 636.4 872.541 635.32C872.901 634.24 873.081 632.62 873.081 630.46V585.82C873.081 583.6 872.901 581.98 872.541 580.96C872.241 579.88 871.581 579.16 870.561 578.8C869.601 578.38 868.191 578.14 866.331 578.08V576.28C867.891 576.34 869.901 576.4 872.361 576.46C874.881 576.52 877.611 576.55 880.551 576.55C883.071 576.55 885.561 576.52 888.021 576.46C890.481 576.4 892.521 576.34 894.141 576.28Z" fill="#FF9900" fill-opacity="0.09"/>
<path d="M970.12 576.1L991.99 632.44C992.83 634.6 993.76 636.1 994.78 636.94C995.86 637.72 996.82 638.14 997.66 638.2V640C995.86 639.88 993.73 639.82 991.27 639.82C988.87 639.76 986.44 639.73 983.98 639.73C981.22 639.73 978.61 639.76 976.15 639.82C973.69 639.82 971.74 639.88 970.3 640V638.2C973.36 638.08 975.28 637.57 976.06 636.67C976.9 635.71 976.72 633.7 975.52 630.64L960.22 588.79L961.84 586.45L948.16 622.09C946.84 625.39 946.03 628.09 945.73 630.19C945.49 632.29 945.64 633.91 946.18 635.05C946.78 636.19 947.71 637 948.97 637.48C950.29 637.9 951.85 638.14 953.65 638.2V640C951.67 639.88 949.78 639.82 947.98 639.82C946.18 639.76 944.35 639.73 942.49 639.73C941.17 639.73 939.91 639.76 938.71 639.82C937.57 639.82 936.55 639.88 935.65 640V638.2C936.91 637.96 938.2 637.15 939.52 635.77C940.84 634.39 942.13 632.05 943.39 628.75L963.91 576.1C964.87 576.16 965.89 576.19 966.97 576.19C968.11 576.19 969.16 576.16 970.12 576.1ZM976.42 614.08V615.88H949.6L950.5 614.08H976.42ZM1026.14 576.28V578.08C1024.22 578.14 1022.75 578.38 1021.73 578.8C1020.77 579.16 1020.14 579.88 1019.84 580.96C1019.54 581.98 1019.39 583.6 1019.39 585.82V630.46C1019.39 632.62 1019.54 634.24 1019.84 635.32C1020.2 636.4 1020.86 637.12 1021.82 637.48C1022.78 637.84 1024.22 638.08 1026.14 638.2V640C1024.52 639.88 1022.48 639.82 1020.02 639.82C1017.56 639.76 1015.07 639.73 1012.55 639.73C1009.61 639.73 1006.88 639.76 1004.36 639.82C1001.9 639.82 999.891 639.88 998.331 640V638.2C1000.25 638.08 1001.69 637.84 1002.65 637.48C1003.61 637.12 1004.24 636.4 1004.54 635.32C1004.9 634.24 1005.08 632.62 1005.08 630.46V585.82C1005.08 583.6 1004.9 581.98 1004.54 580.96C1004.24 579.88 1003.58 579.16 1002.56 578.8C1001.6 578.38 1000.19 578.14 998.331 578.08V576.28C999.891 576.34 1001.9 576.4 1004.36 576.46C1006.88 576.52 1009.61 576.55 1012.55 576.55C1015.07 576.55 1017.56 576.52 1020.02 576.46C1022.48 576.4 1024.52 576.34 1026.14 576.28Z" fill="#FF9900" fill-opacity="0.09"/>
<path d="M706.12 711.1L727.99 767.44C728.83 769.6 729.76 771.1 730.78 771.94C731.86 772.72 732.82 773.14 733.66 773.2V775C731.86 774.88 729.73 774.82 727.27 774.82C724.87 774.76 722.44 774.73 719.98 774.73C717.22 774.73 714.61 774.76 712.15 774.82C709.69 774.82 707.74 774.88 706.3 775V773.2C709.36 773.08 711.28 772.57 712.06 771.67C712.9 770.71 712.72 768.7 711.52 765.64L696.22 723.79L697.84 721.45L684.16 757.09C682.84 760.39 682.03 763.09 681.73 765.19C681.49 767.29 681.64 768.91 682.18 770.05C682.78 771.19 683.71 772 684.97 772.48C686.29 772.9 687.85 773.14 689.65 773.2V775C687.67 774.88 685.78 774.82 683.98 774.82C682.18 774.76 680.35 774.73 678.49 774.73C677.17 774.73 675.91 774.76 674.71 774.82C673.57 774.82 672.55 774.88 671.65 775V773.2C672.91 772.96 674.2 772.15 675.52 770.77C676.84 769.39 678.13 767.05 679.39 763.75L699.91 711.1C700.87 711.16 701.89 711.19 702.97 711.19C704.11 711.19 705.16 711.16 706.12 711.1ZM712.42 749.08V750.88H685.6L686.5 749.08H712.42ZM762.141 711.28V713.08C760.221 713.14 758.751 713.38 757.731 713.8C756.771 714.16 756.141 714.88 755.841 715.96C755.541 716.98 755.391 718.6 755.391 720.82V765.46C755.391 767.62 755.541 769.24 755.841 770.32C756.201 771.4 756.861 772.12 757.821 772.48C758.781 772.84 760.221 773.08 762.141 773.2V775C760.521 774.88 758.481 774.82 756.021 774.82C753.561 774.76 751.071 774.73 748.551 774.73C745.611 774.73 742.881 774.76 740.361 774.82C737.901 774.82 735.891 774.88 734.331 775V773.2C736.251 773.08 737.691 772.84 738.651 772.48C739.611 772.12 740.241 771.4 740.541 770.32C740.901 769.24 741.081 767.62 741.081 765.46V720.82C741.081 718.6 740.901 716.98 740.541 715.96C740.241 714.88 739.581 714.16 738.561 713.8C737.601 713.38 736.191 713.14 734.331 713.08V711.28C735.891 711.34 737.901 711.4 740.361 711.46C742.881 711.52 745.611 711.55 748.551 711.55C751.071 711.55 753.561 711.52 756.021 711.46C758.481 711.4 760.521 711.34 762.141 711.28Z" fill="#FF9900" fill-opacity="0.09"/>
<path d="M838.12 711.1L859.99 767.44C860.83 769.6 861.76 771.1 862.78 771.94C863.86 772.72 864.82 773.14 865.66 773.2V775C863.86 774.88 861.73 774.82 859.27 774.82C856.87 774.76 854.44 774.73 851.98 774.73C849.22 774.73 846.61 774.76 844.15 774.82C841.69 774.82 839.74 774.88 838.3 775V773.2C841.36 773.08 843.28 772.57 844.06 771.67C844.9 770.71 844.72 768.7 843.52 765.64L828.22 723.79L829.84 721.45L816.16 757.09C814.84 760.39 814.03 763.09 813.73 765.19C813.49 767.29 813.64 768.91 814.18 770.05C814.78 771.19 815.71 772 816.97 772.48C818.29 772.9 819.85 773.14 821.65 773.2V775C819.67 774.88 817.78 774.82 815.98 774.82C814.18 774.76 812.35 774.73 810.49 774.73C809.17 774.73 807.91 774.76 806.71 774.82C805.57 774.82 804.55 774.88 803.65 775V773.2C804.91 772.96 806.2 772.15 807.52 770.77C808.84 769.39 810.13 767.05 811.39 763.75L831.91 711.1C832.87 711.16 833.89 711.19 834.97 711.19C836.11 711.19 837.16 711.16 838.12 711.1ZM844.42 749.08V750.88H817.6L818.5 749.08H844.42ZM894.141 711.28V713.08C892.221 713.14 890.751 713.38 889.731 713.8C888.771 714.16 888.141 714.88 887.841 715.96C887.541 716.98 887.391 718.6 887.391 720.82V765.46C887.391 767.62 887.541 769.24 887.841 770.32C888.201 771.4 888.861 772.12 889.821 772.48C890.781 772.84 892.221 773.08 894.141 773.2V775C892.521 774.88 890.481 774.82 888.021 774.82C885.561 774.76 883.071 774.73 880.551 774.73C877.611 774.73 874.881 774.76 872.361 774.82C869.901 774.82 867.891 774.88 866.331 775V773.2C868.251 773.08 869.691 772.84 870.651 772.48C871.611 772.12 872.241 771.4 872.541 770.32C872.901 769.24 873.081 767.62 873.081 765.46V720.82C873.081 718.6 872.901 716.98 872.541 715.96C872.241 714.88 871.581 714.16 870.561 713.8C869.601 713.38 868.191 713.14 866.331 713.08V711.28C867.891 711.34 869.901 711.4 872.361 711.46C874.881 711.52 877.611 711.55 880.551 711.55C883.071 711.55 885.561 711.52 888.021 711.46C890.481 711.4 892.521 711.34 894.141 711.28Z" fill="#FF9900" fill-opacity="0.09"/>
<path d="M970.12 711.1L991.99 767.44C992.83 769.6 993.76 771.1 994.78 771.94C995.86 772.72 996.82 773.14 997.66 773.2V775C995.86 774.88 993.73 774.82 991.27 774.82C988.87 774.76 986.44 774.73 983.98 774.73C981.22 774.73 978.61 774.76 976.15 774.82C973.69 774.82 971.74 774.88 970.3 775V773.2C973.36 773.08 975.28 772.57 976.06 771.67C976.9 770.71 976.72 768.7 975.52 765.64L960.22 723.79L961.84 721.45L948.16 757.09C946.84 760.39 946.03 763.09 945.73 765.19C945.49 767.29 945.64 768.91 946.18 770.05C946.78 771.19 947.71 772 948.97 772.48C950.29 772.9 951.85 773.14 953.65 773.2V775C951.67 774.88 949.78 774.82 947.98 774.82C946.18 774.76 944.35 774.73 942.49 774.73C941.17 774.73 939.91 774.76 938.71 774.82C937.57 774.82 936.55 774.88 935.65 775V773.2C936.91 772.96 938.2 772.15 939.52 770.77C940.84 769.39 942.13 767.05 943.39 763.75L963.91 711.1C964.87 711.16 965.89 711.19 966.97 711.19C968.11 711.19 969.16 711.16 970.12 711.1ZM976.42 749.08V750.88H949.6L950.5 749.08H976.42ZM1026.14 711.28V713.08C1024.22 713.14 1022.75 713.38 1021.73 713.8C1020.77 714.16 1020.14 714.88 1019.84 715.96C1019.54 716.98 1019.39 718.6 1019.39 720.82V765.46C1019.39 767.62 1019.54 769.24 1019.84 770.32C1020.2 771.4 1020.86 772.12 1021.82 772.48C1022.78 772.84 1024.22 773.08 1026.14 773.2V775C1024.52 774.88 1022.48 774.82 1020.02 774.82C1017.56 774.76 1015.07 774.73 1012.55 774.73C1009.61 774.73 1006.88 774.76 1004.36 774.82C1001.9 774.82 999.891 774.88 998.331 775V773.2C1000.25 773.08 1001.69 772.84 1002.65 772.48C1003.61 772.12 1004.24 771.4 1004.54 770.32C1004.9 769.24 1005.08 767.62 1005.08 765.46V720.82C1005.08 718.6 1004.9 716.98 1004.54 715.96C1004.24 714.88 1003.58 714.16 1002.56 713.8C1001.6 713.38 1000.19 713.14 998.331 713.08V711.28C999.891 711.34 1001.9 711.4 1004.36 711.46C1006.88 711.52 1009.61 711.55 1012.55 711.55C1015.07 711.55 1017.56 711.52 1020.02 711.46C1022.48 711.4 1024.52 711.34 1026.14 711.28Z" fill="#FF9900" fill-opacity="0.09"/>
<path d="M838.12 846.1L859.99 902.44C860.83 904.6 861.76 906.1 862.78 906.94C863.86 907.72 864.82 908.14 865.66 908.2V910C863.86 909.88 861.73 909.82 859.27 909.82C856.87 909.76 854.44 909.73 851.98 909.73C849.22 909.73 846.61 909.76 844.15 909.82C841.69 909.82 839.74 909.88 838.3 910V908.2C841.36 908.08 843.28 907.57 844.06 906.67C844.9 905.71 844.72 903.7 843.52 900.64L828.22 858.79L829.84 856.45L816.16 892.09C814.84 895.39 814.03 898.09 813.73 900.19C813.49 902.29 813.64 903.91 814.18 905.05C814.78 906.19 815.71 907 816.97 907.48C818.29 907.9 819.85 908.14 821.65 908.2V910C819.67 909.88 817.78 909.82 815.98 909.82C814.18 909.76 812.35 909.73 810.49 909.73C809.17 909.73 807.91 909.76 806.71 909.82C805.57 909.82 804.55 909.88 803.65 910V908.2C804.91 907.96 806.2 907.15 807.52 905.77C808.84 904.39 810.13 902.05 811.39 898.75L831.91 846.1C832.87 846.16 833.89 846.19 834.97 846.19C836.11 846.19 837.16 846.16 838.12 846.1ZM844.42 884.08V885.88H817.6L818.5 884.08H844.42ZM894.141 846.28V848.08C892.221 848.14 890.751 848.38 889.731 848.8C888.771 849.16 888.141 849.88 887.841 850.96C887.541 851.98 887.391 853.6 887.391 855.82V900.46C887.391 902.62 887.541 904.24 887.841 905.32C888.201 906.4 888.861 907.12 889.821 907.48C890.781 907.84 892.221 908.08 894.141 908.2V910C892.521 909.88 890.481 909.82 888.021 909.82C885.561 909.76 883.071 909.73 880.551 909.73C877.611 909.73 874.881 909.76 872.361 909.82C869.901 909.82 867.891 909.88 866.331 910V908.2C868.251 908.08 869.691 907.84 870.651 907.48C871.611 907.12 872.241 906.4 872.541 905.32C872.901 904.24 873.081 902.62 873.081 900.46V855.82C873.081 853.6 872.901 851.98 872.541 850.96C872.241 849.88 871.581 849.16 870.561 848.8C869.601 848.38 868.191 848.14 866.331 848.08V846.28C867.891 846.34 869.901 846.4 872.361 846.46C874.881 846.52 877.611 846.55 880.551 846.55C883.071 846.55 885.561 846.52 888.021 846.46C890.481 846.4 892.521 846.34 894.141 846.28Z" fill="#FF9900" fill-opacity="0.09"/>
<path d="M970.12 846.1L991.99 902.44C992.83 904.6 993.76 906.1 994.78 906.94C995.86 907.72 996.82 908.14 997.66 908.2V910C995.86 909.88 993.73 909.82 991.27 909.82C988.87 909.76 986.44 909.73 983.98 909.73C981.22 909.73 978.61 909.76 976.15 909.82C973.69 909.82 971.74 909.88 970.3 910V908.2C973.36 908.08 975.28 907.57 976.06 906.67C976.9 905.71 976.72 903.7 975.52 900.64L960.22 858.79L961.84 856.45L948.16 892.09C946.84 895.39 946.03 898.09 945.73 900.19C945.49 902.29 945.64 903.91 946.18 905.05C946.78 906.19 947.71 907 948.97 907.48C950.29 907.9 951.85 908.14 953.65 908.2V910C951.67 909.88 949.78 909.82 947.98 909.82C946.18 909.76 944.35 909.73 942.49 909.73C941.17 909.73 939.91 909.76 938.71 909.82C937.57 909.82 936.55 909.88 935.65 910V908.2C936.91 907.96 938.2 907.15 939.52 905.77C940.84 904.39 942.13 902.05 943.39 898.75L963.91 846.1C964.87 846.16 965.89 846.19 966.97 846.19C968.11 846.19 969.16 846.16 970.12 846.1ZM976.42 884.08V885.88H949.6L950.5 884.08H976.42ZM1026.14 846.28V848.08C1024.22 848.14 1022.75 848.38 1021.73 848.8C1020.77 849.16 1020.14 849.88 1019.84 850.96C1019.54 851.98 1019.39 853.6 1019.39 855.82V900.46C1019.39 902.62 1019.54 904.24 1019.84 905.32C1020.2 906.4 1020.86 907.12 1021.82 907.48C1022.78 907.84 1024.22 908.08 1026.14 908.2V910C1024.52 909.88 1022.48 909.82 1020.02 909.82C1017.56 909.76 1015.07 909.73 1012.55 909.73C1009.61 909.73 1006.88 909.76 1004.36 909.82C1001.9 909.82 999.891 909.88 998.331 910V908.2C1000.25 908.08 1001.69 907.84 1002.65 907.48C1003.61 907.12 1004.24 906.4 1004.54 905.32C1004.9 904.24 1005.08 902.62 1005.08 900.46V855.82C1005.08 853.6 1004.9 851.98 1004.54 850.96C1004.24 849.88 1003.58 849.16 1002.56 848.8C1001.6 848.38 1000.19 848.14 998.331 848.08V846.28C999.891 846.34 1001.9 846.4 1004.36 846.46C1006.88 846.52 1009.61 846.55 1012.55 846.55C1015.07 846.55 1017.56 846.52 1020.02 846.46C1022.48 846.4 1024.52 846.34 1026.14 846.28Z" fill="#FF9900" fill-opacity="0.09"/>
<path d="M970.12 981.1L991.99 1037.44C992.83 1039.6 993.76 1041.1 994.78 1041.94C995.86 1042.72 996.82 1043.14 997.66 1043.2V1045C995.86 1044.88 993.73 1044.82 991.27 1044.82C988.87 1044.76 986.44 1044.73 983.98 1044.73C981.22 1044.73 978.61 1044.76 976.15 1044.82C973.69 1044.82 971.74 1044.88 970.3 1045V1043.2C973.36 1043.08 975.28 1042.57 976.06 1041.67C976.9 1040.71 976.72 1038.7 975.52 1035.64L960.22 993.79L961.84 991.45L948.16 1027.09C946.84 1030.39 946.03 1033.09 945.73 1035.19C945.49 1037.29 945.64 1038.91 946.18 1040.05C946.78 1041.19 947.71 1042 948.97 1042.48C950.29 1042.9 951.85 1043.14 953.65 1043.2V1045C951.67 1044.88 949.78 1044.82 947.98 1044.82C946.18 1044.76 944.35 1044.73 942.49 1044.73C941.17 1044.73 939.91 1044.76 938.71 1044.82C937.57 1044.82 936.55 1044.88 935.65 1045V1043.2C936.91 1042.96 938.2 1042.15 939.52 1040.77C940.84 1039.39 942.13 1037.05 943.39 1033.75L963.91 981.1C964.87 981.16 965.89 981.19 966.97 981.19C968.11 981.19 969.16 981.16 970.12 981.1ZM976.42 1019.08V1020.88H949.6L950.5 1019.08H976.42ZM1026.14 981.28V983.08C1024.22 983.14 1022.75 983.38 1021.73 983.8C1020.77 984.16 1020.14 984.88 1019.84 985.96C1019.54 986.98 1019.39 988.6 1019.39 990.82V1035.46C1019.39 1037.62 1019.54 1039.24 1019.84 1040.32C1020.2 1041.4 1020.86 1042.12 1021.82 1042.48C1022.78 1042.84 1024.22 1043.08 1026.14 1043.2V1045C1024.52 1044.88 1022.48 1044.82 1020.02 1044.82C1017.56 1044.76 1015.07 1044.73 1012.55 1044.73C1009.61 1044.73 1006.88 1044.76 1004.36 1044.82C1001.9 1044.82 999.891 1044.88 998.331 1045V1043.2C1000.25 1043.08 1001.69 1042.84 1002.65 1042.48C1003.61 1042.12 1004.24 1041.4 1004.54 1040.32C1004.9 1039.24 1005.08 1037.62 1005.08 1035.46V990.82C1005.08 988.6 1004.9 986.98 1004.54 985.96C1004.24 984.88 1003.58 984.16 1002.56 983.8C1001.6 983.38 1000.19 983.14 998.331 983.08V981.28C999.891 981.34 1001.9 981.4 1004.36 981.46C1006.88 981.52 1009.61 981.55 1012.55 981.55C1015.07 981.55 1017.56 981.52 1020.02 981.46C1022.48 981.4 1024.52 981.34 1026.14 981.28Z" fill="#FF9900" fill-opacity="0.09"/>
</svg>
