<svg width="34" height="24" viewBox="0 0 34 24" fill="none" xmlns="http://www.w3.org/2000/svg">
<path d="M16.9061 24C16.3828 23.9989 15.8703 23.8961 15.4252 23.703C14.9801 23.5099 14.6198 23.234 14.3844 22.906L0.21772 3.01468C-0.0572968 2.55103 -0.0722992 2.0315 0.175726 1.5604C0.423751 1.08931 0.91644 0.701518 1.55488 0.474894C2.19331 0.24827 2.93023 0.199589 3.61768 0.338625C4.30512 0.477661 4.8922 0.79412 5.26105 1.22447L16.9061 17.5552L28.5511 1.22447C28.7008 0.971953 28.9232 0.74384 29.2042 0.554384C29.4852 0.364927 29.8189 0.218199 30.1844 0.123368C30.5498 0.0285365 30.9392 -0.0123595 31.3282 0.00323571C31.7172 0.0188309 32.0974 0.0905815 32.4451 0.214005C32.7928 0.337428 33.1005 0.50987 33.349 0.720556C33.5975 0.931241 33.7814 1.17564 33.8893 1.43848C33.9971 1.70133 34.0266 1.97696 33.9759 2.24816C33.9251 2.51937 33.7953 2.78031 33.5944 3.01468L19.4277 22.906C19.1923 23.234 18.832 23.5099 18.3869 23.703C17.9418 23.8961 17.4293 23.9989 16.9061 24Z" fill="#216477"/>
</svg>
