<svg width="150" height="150" viewBox="0 0 150 150" fill="none" xmlns="http://www.w3.org/2000/svg">
<path d="M75 96.7727C95.0426 96.7727 111.29 80.5252 111.29 60.4829C111.29 40.4406 95.0426 24.1932 75 24.1932C54.9574 24.1932 38.7097 40.4406 38.7097 60.4829C38.7097 80.5252 54.9574 96.7727 75 96.7727Z" fill="#FFCB57"/>
<path d="M145.161 73.0246V52.7774C147.97 51.7758 150 49.1145 150 45.9646C150 41.963 146.744 38.7066 142.742 38.7066C141.91 38.7066 141.121 38.876 140.376 39.1349L129.535 25.5818C130.227 24.4762 130.645 23.177 130.645 21.7738C130.645 17.7723 127.389 14.5159 123.387 14.5159C121.352 14.5159 119.519 15.3627 118.198 16.7151L99.1258 7.91358C99.1476 7.69342 99.1936 7.48294 99.1936 7.25795C99.1936 3.2564 95.9371 0 91.9355 0C88.7855 0 86.1242 2.02981 85.1226 4.83863H57.6194C56.6177 2.02981 53.9565 0 50.8065 0C46.8048 0 43.5484 3.2564 43.5484 7.25795C43.5484 7.55794 43.6016 7.84584 43.6379 8.13616L31.6379 14.1361C30.3315 12.8804 28.5653 12.0966 26.6129 12.0966C22.6113 12.0966 19.3548 15.353 19.3548 19.3545C19.3548 20.7577 19.7734 22.0569 20.4629 23.1674L9.62177 36.718C8.87661 36.4591 8.09032 36.2897 7.25806 36.2897C3.25645 36.2897 0 39.5461 0 43.5477C0 46.6976 2.02984 49.3589 4.83871 50.3605V65.7691C2.02984 66.7683 0 69.4295 0 72.5795C0 76.581 3.25645 79.8374 7.25806 79.8374C9.94597 79.8374 12.2685 78.352 13.5242 76.177L26.7315 78.5794C27.2903 82.0269 30.2661 84.6761 33.871 84.6761C33.9702 84.6761 34.0597 84.6519 34.1565 84.647L38.7726 96.1872C37.2629 97.5202 36.2903 99.4436 36.2903 101.611C36.2903 105.613 39.5468 108.869 43.5484 108.869C45.9823 108.869 48.1282 107.655 49.4444 105.811L70.2073 111.743C70.3935 114.69 72.329 117.148 75 118.101V135.929C72.1911 136.931 70.1613 139.592 70.1613 142.742C70.1613 146.744 73.4177 150 77.4194 150C81.421 150 84.6774 146.744 84.6774 142.742C84.6774 139.592 82.6476 136.931 79.8387 135.929V118.101C82.6476 117.1 84.6774 114.438 84.6774 111.289C84.6774 108.971 83.5645 106.924 81.8661 105.596L84.7548 96.9299L106.464 104.166C106.522 107.256 108.52 109.854 111.288 110.841V135.927C108.479 136.928 106.449 139.59 106.449 142.74C106.449 146.741 109.706 149.998 113.707 149.998C117.709 149.998 120.965 146.741 120.965 142.74C120.965 139.59 118.935 136.928 116.127 135.927V110.843C118.935 109.842 120.965 107.181 120.965 104.031C120.965 103.148 120.784 102.31 120.494 101.527L139.057 86.0575C140.141 86.701 141.392 87.0954 142.742 87.0954C146.744 87.0954 150 83.839 150 79.8374C150 76.6875 147.97 74.0262 145.161 73.0246ZM41.1145 77.2826C41.1097 76.9923 41.0661 76.7141 41.0274 76.4334L60.8734 66.1441L67.0113 85.9172L41.1145 77.2826ZM35.7145 70.4263L32.3613 44.7138L48.9411 43.884C49.9935 46.4339 52.4589 48.2387 55.3573 48.3549L59.4194 61.4458L38.8137 72.1295C37.9476 71.3238 36.8903 70.7384 35.7145 70.4263ZM13.9645 40.7897C13.8121 40.4195 13.6161 40.0711 13.4056 39.7348L24.2468 26.1843C24.5274 26.281 24.8032 26.3851 25.096 26.448L26.8839 40.1437L13.9645 40.7897ZM29.8911 25.7947C32.2427 24.5923 33.871 22.1706 33.871 19.3545C33.871 19.0545 33.8177 18.7666 33.7815 18.4763L45.7815 12.4764C47.0879 13.732 48.854 14.5159 50.8065 14.5159C52.2919 14.5159 53.6734 14.0635 54.825 13.2941L69.8492 24.5609L58.9718 34.7123C57.9702 34.1946 56.85 33.8704 55.6452 33.8704C52.3694 33.8704 49.6258 36.0647 48.7258 39.0526L31.7323 39.9018L29.8911 25.7947ZM85.2895 10.1539L73.4419 21.2101L58.0621 9.67726H85.1226C85.1806 9.83694 85.2218 9.99903 85.2895 10.1539ZM92.0347 44.5348L72.5661 54.6306L62.175 44.2396C62.6274 43.2912 62.9032 42.2461 62.9032 41.1284C62.9032 40.0977 62.6806 39.1228 62.2935 38.2349L73.7806 27.5125L92.296 41.3993C92.0831 42.0816 91.9355 42.7953 91.9355 43.5477C91.9355 43.8864 91.9911 44.2082 92.0347 44.5348ZM58.0645 41.1284C58.0645 42.4614 56.9806 43.5477 55.6452 43.5477C54.3097 43.5477 53.2258 42.4614 53.2258 41.1284C53.2258 39.7953 54.3097 38.7091 55.6452 38.7091C56.9806 38.7091 58.0645 39.7953 58.0645 41.1284ZM68.0613 56.9652L63.7815 59.1837L60.8565 49.7605L68.0613 56.9652ZM65.2379 63.8796L71.6492 60.5555L82.9839 71.89C82.5339 72.8359 82.2581 73.8811 82.2581 74.9988C82.2581 77.3189 83.371 79.3632 85.0694 80.6914L81.6968 90.809L72.6629 87.797L65.2379 63.8796ZM89.5161 77.4181C88.1806 77.4181 87.0968 76.3318 87.0968 74.9988C87.0968 73.6657 88.1806 72.5795 89.5161 72.5795C90.8516 72.5795 91.9355 73.6657 91.9355 74.9988C91.9355 76.3318 90.8516 77.4181 89.5161 77.4181ZM89.5161 67.7408C88.3984 67.7408 87.3532 68.0142 86.4073 68.4691L76.1565 58.2184L94.2532 48.8339C95.55 50.0484 97.2798 50.8056 99.1936 50.8056C100.544 50.8056 101.794 50.4113 102.878 49.7653L113.894 58.9442L94.3379 69.611C93.0508 68.4618 91.3742 67.7408 89.5161 67.7408ZM119.947 28.1245C120.975 28.6858 122.136 29.0318 123.387 29.0318C124.219 29.0318 125.006 28.8624 125.751 28.6036L136.592 42.1566C135.902 43.267 135.484 44.5638 135.484 45.967C135.484 46.3565 135.54 46.7339 135.6 47.1065L118.464 56.4547L105.98 46.0517C106.27 45.2678 106.452 44.4307 106.452 43.5477C106.452 42.563 106.251 41.6267 105.895 40.7703L119.947 28.1245ZM139.06 73.6174L122.46 59.7837L137.923 51.35C138.617 51.9742 139.427 52.458 140.325 52.7774V73.0246C139.88 73.1843 139.459 73.3803 139.06 73.6174ZM101.613 43.5477C101.613 44.8807 100.529 45.967 99.1936 45.967C97.8581 45.967 96.7742 44.8807 96.7742 43.5477C96.7742 42.2146 97.8581 41.1284 99.1936 41.1284C100.529 41.1284 101.613 42.2146 101.613 43.5477ZM117.89 62.278L135.227 76.7262L97.6645 73.3101L117.89 62.278ZM145.161 45.967C145.161 47.3 144.077 48.3863 142.742 48.3863C141.406 48.3863 140.323 47.3 140.323 45.967C140.323 44.634 141.406 43.5477 142.742 43.5477C144.077 43.5477 145.161 44.634 145.161 45.967ZM123.387 19.3545C124.723 19.3545 125.806 20.4408 125.806 21.7738C125.806 23.1069 124.723 24.1932 123.387 24.1932C122.052 24.1932 120.968 23.1069 120.968 21.7738C120.968 20.4408 122.052 19.3545 123.387 19.3545ZM116.194 21.1182C116.175 21.3384 116.129 21.5488 116.129 21.7738C116.129 22.7585 116.33 23.6948 116.685 24.5512L102.631 37.197C101.606 36.6357 100.444 36.2897 99.1936 36.2897C97.7081 36.2897 96.3266 36.7421 95.175 37.5115L77.3734 24.1593L88.6113 13.6716C89.6105 14.1941 90.7307 14.5159 91.9355 14.5159C93.9702 14.5159 95.8065 13.6691 97.125 12.3167L116.194 21.1182ZM91.9355 4.83863C93.271 4.83863 94.3548 5.9249 94.3548 7.25795C94.3548 8.59099 93.271 9.67726 91.9355 9.67726C90.6 9.67726 89.5161 8.59099 89.5161 7.25795C89.5161 5.9249 90.6 4.83863 91.9355 4.83863ZM50.8065 4.83863C52.1419 4.83863 53.2258 5.9249 53.2258 7.25795C53.2258 8.59099 52.1419 9.67726 50.8065 9.67726C49.471 9.67726 48.3871 8.59099 48.3871 7.25795C48.3871 5.9249 49.471 4.83863 50.8065 4.83863ZM26.6129 16.9352C27.9484 16.9352 29.0323 18.0215 29.0323 19.3545C29.0323 20.6876 27.9484 21.7738 26.6129 21.7738C25.2774 21.7738 24.1936 20.6876 24.1936 19.3545C24.1936 18.0215 25.2774 16.9352 26.6129 16.9352ZM7.25806 41.1284C8.59355 41.1284 9.67742 42.2146 9.67742 43.5477C9.67742 44.8807 8.59355 45.967 7.25806 45.967C5.92258 45.967 4.83871 44.8807 4.83871 43.5477C4.83871 42.2146 5.92258 41.1284 7.25806 41.1284ZM7.25806 74.9988C5.92258 74.9988 4.83871 73.9125 4.83871 72.5795C4.83871 71.2464 5.92258 70.1602 7.25806 70.1602C8.59355 70.1602 9.67742 71.2464 9.67742 72.5795C9.67742 73.9125 8.59355 74.9988 7.25806 74.9988ZM9.67742 65.7667V50.3581C11.8403 49.5863 13.5121 47.8323 14.1774 45.621L27.5129 44.9533L30.8855 70.8158C29.4968 71.4448 28.3621 72.5045 27.6048 73.8157L14.4 71.4182C13.9718 68.786 12.1331 66.6425 9.67742 65.7667ZM31.4516 77.4181C31.4516 76.0851 32.5355 74.9988 33.871 74.9988C35.2065 74.9988 36.2903 76.0851 36.2903 77.4181C36.2903 78.7512 35.2065 79.8374 33.871 79.8374C32.5355 79.8374 31.4516 78.7512 31.4516 77.4181ZM38.6468 82.8398C38.9831 82.5446 39.2879 82.218 39.5637 81.8648L68.7774 91.6026L73.0911 105.497C72.4911 105.947 71.9589 106.477 71.5234 107.086L50.7605 101.154C50.521 97.3702 47.3952 94.3533 43.5484 94.3533C43.4516 94.3533 43.3597 94.3775 43.2653 94.3824L38.6468 82.8398ZM43.5484 104.031C42.2129 104.031 41.129 102.944 41.129 101.611C41.129 100.278 42.2129 99.1919 43.5484 99.1919C44.8839 99.1919 45.9677 100.278 45.9677 101.611C45.9677 102.944 44.8839 104.031 43.5484 104.031ZM77.4194 145.159C76.0839 145.159 75 144.073 75 142.74C75 141.407 76.0839 140.32 77.4194 140.32C78.7548 140.32 79.8387 141.407 79.8387 142.74C79.8387 144.073 78.7548 145.159 77.4194 145.159ZM77.4194 113.708C76.0839 113.708 75 112.622 75 111.289C75 109.955 76.0839 108.869 77.4194 108.869C78.7548 108.869 79.8387 109.955 79.8387 111.289C79.8387 112.622 78.7548 113.708 77.4194 113.708ZM77.5016 103.392L74.4266 93.4872L80.1653 95.4009L77.5016 103.392ZM89.6516 82.2422C92.5113 82.189 94.9597 80.4761 96.0919 78.0254L135.735 81.6301C135.798 81.8721 135.871 82.1092 135.956 82.3414L117.392 97.8105C116.308 97.167 115.06 96.7726 113.71 96.7726C111.392 96.7726 109.345 97.8855 108.017 99.5839L86.2863 92.3404L89.6516 82.2422ZM113.71 145.159C112.374 145.159 111.29 144.073 111.29 142.74C111.29 141.407 112.374 140.32 113.71 140.32C115.045 140.32 116.129 141.407 116.129 142.74C116.129 144.073 115.045 145.159 113.71 145.159ZM113.71 106.45C112.374 106.45 111.29 105.364 111.29 104.031C111.29 102.698 112.374 101.611 113.71 101.611C115.045 101.611 116.129 102.698 116.129 104.031C116.129 105.364 115.045 106.45 113.71 106.45ZM142.742 82.2567C141.406 82.2567 140.323 81.1705 140.323 79.8374C140.323 78.5044 141.406 77.4181 142.742 77.4181C144.077 77.4181 145.161 78.5044 145.161 79.8374C145.161 81.1705 144.077 82.2567 142.742 82.2567Z" fill="#216477"/>
<path d="M9.67742 0H4.83871V4.83863H9.67742V0Z" fill="#E56565"/>
<path d="M9.67745 9.67725H4.83875V14.5159H9.67745V9.67725Z" fill="#E56565"/>
<path d="M14.5161 4.83862H9.67737V9.67725H14.5161V4.83862Z" fill="#E56565"/>
<path d="M4.83871 4.83862H0V9.67725H4.83871V4.83862Z" fill="#E56565"/>
<path d="M130.645 111.289H125.806V116.127H130.645V111.289Z" fill="#E56565"/>
<path d="M130.645 120.966H125.806V125.804H130.645V120.966Z" fill="#E56565"/>
<path d="M135.484 116.127H130.645V120.966H135.484V116.127Z" fill="#E56565"/>
<path d="M125.806 116.127H120.968V120.966H125.806V116.127Z" fill="#E56565"/>
<path d="M145.161 9.67725H140.323V14.5159H145.161V9.67725Z" fill="#E56565"/>
<path d="M145.161 19.3546H140.323V24.1932H145.161V19.3546Z" fill="#E56565"/>
<path d="M150 14.5159H145.161V19.3545H150V14.5159Z" fill="#E56565"/>
<path d="M140.323 14.5159H135.484V19.3545H140.323V14.5159Z" fill="#E56565"/>
<path d="M33.8709 116.127H29.0322V120.966H33.8709V116.127Z" fill="#E56565"/>
<path d="M33.8709 125.804H29.0322V130.643H33.8709V125.804Z" fill="#E56565"/>
<path d="M38.7097 120.966H33.871V125.804H38.7097V120.966Z" fill="#E56565"/>
<path d="M29.0323 120.966H24.1936V125.804H29.0323V120.966Z" fill="#E56565"/>
<path d="M19.3548 89.5147H14.5161V94.3533H19.3548V89.5147Z" fill="#E56565"/>
<path d="M19.3548 99.192H14.5161V104.031H19.3548V99.192Z" fill="#E56565"/>
<path d="M24.1936 94.3533H19.3549V99.192H24.1936V94.3533Z" fill="#E56565"/>
<path d="M14.5161 94.3533H9.67737V99.192H14.5161V94.3533Z" fill="#E56565"/>
</svg>
