<svg width="25" height="25" viewBox="0 0 25 25" fill="none" xmlns="http://www.w3.org/2000/svg">
<path d="M11.8301 20.8687C11.6132 20.8687 11.3975 20.8358 11.1905 20.771C10.3008 20.4932 9.732 19.7144 9.74078 18.7876C9.7486 17.9404 9.58698 17.2007 9.2608 16.5903C8.8609 15.8418 8.19489 15.2656 7.28082 14.8774C7.19205 14.8399 7.11154 14.7852 7.0439 14.7165C6.97626 14.6478 6.92281 14.5665 6.88661 14.4771C6.8504 14.3878 6.83215 14.2922 6.83289 14.1958C6.83363 14.0994 6.85336 14.0041 6.89093 13.9153C6.92851 13.8265 6.9832 13.746 7.05189 13.6784C7.12058 13.6107 7.20192 13.5573 7.29126 13.5211C7.38061 13.4849 7.47621 13.4666 7.5726 13.4674C7.669 13.4681 7.76431 13.4878 7.85309 13.5254C10.0699 14.4658 11.2291 16.2891 11.2051 18.7988C11.2057 18.926 11.2468 19.0498 11.3223 19.1521C11.3978 19.2545 11.504 19.3302 11.6254 19.3682C11.7468 19.4063 11.8771 19.4047 11.9976 19.3638C12.118 19.3229 12.2224 19.2447 12.2955 19.1406C13.6793 17.104 12.4649 14.8618 12.4527 14.8394C12.3909 14.7279 12.3593 14.6022 12.361 14.4747C12.3627 14.3472 12.3976 14.2224 12.4623 14.1126C12.527 14.0028 12.6192 13.9117 12.7299 13.8485C12.8406 13.7852 12.9659 13.752 13.0933 13.752H20.0093C20.1902 13.7472 20.3621 13.6719 20.4884 13.5423C20.6146 13.4126 20.6853 13.2388 20.6853 13.0579C20.6853 12.8769 20.6146 12.7031 20.4884 12.5734C20.3621 12.4438 20.1902 12.3686 20.0093 12.3638H19.0108C18.8166 12.3638 18.6303 12.2866 18.4929 12.1492C18.3555 12.0119 18.2784 11.8256 18.2784 11.6313C18.2784 11.4371 18.3555 11.2508 18.4929 11.1134C18.6303 10.9761 18.8166 10.8989 19.0108 10.8989C19.1019 10.899 19.1922 10.8811 19.2764 10.8462C19.3606 10.8114 19.4371 10.7603 19.5016 10.6958C19.566 10.6314 19.6171 10.5549 19.652 10.4707C19.6868 10.3865 19.7047 10.2962 19.7047 10.2051C19.7044 10.0211 19.6312 9.8448 19.5011 9.71474C19.3711 9.58467 19.1947 9.51149 19.0108 9.51123H18.0128C17.8185 9.51123 17.6322 9.43407 17.4949 9.29671C17.3575 9.15935 17.2803 8.97306 17.2803 8.77881C17.2803 8.58456 17.3575 8.39826 17.4949 8.26091C17.6322 8.12355 17.8185 8.04639 18.0128 8.04639C18.1968 8.04639 18.3733 7.97329 18.5034 7.84316C18.6335 7.71304 18.7066 7.53656 18.7066 7.35254C18.7066 7.16852 18.6335 6.99204 18.5034 6.86191C18.3733 6.73179 18.1968 6.65869 18.0128 6.65869H17.0142C16.82 6.65869 16.6337 6.58153 16.4963 6.44417C16.359 6.30681 16.2818 6.12052 16.2818 5.92627C16.2818 5.73202 16.359 5.54572 16.4963 5.40837C16.6337 5.27101 16.82 5.19385 17.0142 5.19385C17.1982 5.19385 17.3747 5.12075 17.5048 4.99062C17.635 4.8605 17.7081 4.68402 17.7081 4.5C17.7081 4.31598 17.635 4.1395 17.5048 4.00938C17.3747 3.87925 17.1982 3.80615 17.0142 3.80615H12.7833C12.1321 3.80527 11.4859 3.92103 10.8756 4.14795L7.57965 5.37207C7.40252 5.42252 7.21287 5.40438 7.04851 5.32127C6.88415 5.23815 6.75714 5.09617 6.69278 4.9236C6.62842 4.75103 6.63144 4.56054 6.70124 4.3901C6.77103 4.21966 6.90248 4.08177 7.0694 4.00391L10.3653 2.77979C11.1388 2.49115 11.9577 2.34347 12.7833 2.34375H17.0142C17.3774 2.34442 17.7346 2.43662 18.0527 2.61185C18.3708 2.78707 18.6396 3.03966 18.8343 3.34627C19.029 3.65288 19.1432 4.00361 19.1665 4.36605C19.1897 4.72849 19.1212 5.09095 18.9673 5.41992C19.4736 5.67067 19.8616 6.10965 20.0482 6.64289C20.2348 7.17612 20.2053 7.76123 19.9659 8.27295C20.4719 8.52378 20.8597 8.96272 21.0462 9.49583C21.2328 10.0289 21.2032 10.6139 20.9639 11.1255C21.4006 11.3414 21.7513 11.6986 21.9593 12.1391C22.1672 12.5796 22.22 13.0774 22.1092 13.5517C21.9984 14.026 21.7304 14.4489 21.3488 14.7516C20.9672 15.0544 20.4945 15.2192 20.0074 15.2192H14.1656C14.4962 16.3477 14.7139 18.1904 13.5074 19.9663C13.3241 20.2435 13.075 20.471 12.7823 20.6285C12.4896 20.7859 12.1625 20.8685 11.8301 20.8687Z" fill="black"/>
<path d="M7.56848 14.9341H3.37561C3.18136 14.9341 2.99507 14.8569 2.85771 14.7196C2.72035 14.5822 2.64319 14.3959 2.64319 14.2017V4.16064C2.64319 3.96639 2.72035 3.7801 2.85771 3.64274C2.99507 3.50539 3.18136 3.42822 3.37561 3.42822H7.56848C7.76273 3.42822 7.94903 3.50539 8.08638 3.64274C8.22374 3.7801 8.3009 3.96639 8.3009 4.16064V14.2017C8.3009 14.3959 8.22374 14.5822 8.08638 14.7196C7.94903 14.8569 7.76273 14.9341 7.56848 14.9341ZM4.1095 13.4692H6.83606V4.89307H4.10803L4.1095 13.4692Z" fill="black"/>
</svg>
