<svg width="150" height="150" viewBox="0 0 150 150" fill="none" xmlns="http://www.w3.org/2000/svg">
<path d="M49.105 88.0236C48.4742 86.7704 47.9256 85.4688 47.4784 84.1188L36.3291 82.2583V67.7422L47.4784 65.8817C47.9256 64.5317 48.4742 63.2301 49.105 61.9768L42.5285 52.7615L52.7836 42.4962L61.9897 49.0793C63.2417 48.4478 64.542 47.8986 65.8907 47.4511L67.7493 36.2906H82.2509L84.1096 47.4511C85.4582 47.8986 86.7585 48.4478 88.0105 49.0793L97.2166 42.4962L107.472 52.7615L100.895 61.9768C101.526 63.2301 102.075 64.5317 102.522 65.8817L113.671 67.7422V82.2583L102.522 84.1188C102.075 85.4688 101.526 86.7704 100.895 88.0236L107.472 97.2389L97.2166 107.504L88.0105 100.921C86.7585 101.553 85.4582 102.104 84.1096 102.549L82.2509 113.71H67.7493L65.8907 102.549C64.542 102.102 63.2417 101.553 61.9897 100.921L52.7836 107.504L42.5285 97.2389L49.105 88.0236Z" fill="#FFBA73"/>
<path d="M75 96.7744C86.9928 96.7744 96.7524 87.0075 96.7524 75.0002C96.7524 62.993 86.9928 53.2261 75 53.2261C63.0072 53.2261 53.2476 62.993 53.2476 75.0002C53.2476 87.0075 63.0072 96.7744 75 96.7744ZM72.5831 75.0002C72.5831 73.6648 73.6683 72.5809 75 72.5809C76.3317 72.5809 77.4169 73.6648 77.4169 75.0002C77.4169 76.3357 76.3317 77.4196 75 77.4196C73.6683 77.4196 72.5831 76.3357 72.5831 75.0002ZM75 58.0648C84.3294 58.0648 91.9186 65.664 91.9186 75.0002C91.9186 83.5139 85.6031 90.5615 77.4169 91.7422V81.8131C80.223 80.8115 82.2508 78.1502 82.2508 75.0002C82.2508 70.9986 78.9976 67.7422 75 67.7422C71.0024 67.7422 67.7492 70.9986 67.7492 75.0002C67.7492 78.1502 69.777 80.8115 72.5831 81.8131V91.7422C64.3969 90.5615 58.0814 83.5139 58.0814 75.0002C58.0814 65.664 65.6706 58.0648 75 58.0648Z" fill="#216477"/>
<path d="M103.053 60.8881L98.7366 63.0655C99.336 64.2534 99.8388 65.4583 100.228 66.6413L100.685 68.0276L111.254 69.7937V80.2091L100.685 81.9728L100.228 83.359C99.8388 84.5397 99.336 85.7445 98.7366 86.9348L98.0792 88.2413L104.315 96.9776L96.9578 104.344L88.2278 98.1026L86.9251 98.7582C85.7335 99.3582 84.5299 99.8614 83.3504 100.251L81.9655 100.708L80.2036 111.29H69.7962L68.0343 100.711L66.6494 100.253C65.4699 99.8638 64.2663 99.3606 63.0747 98.7606L61.772 98.105L53.042 104.347L44.2347 95.5308L40.8171 98.9518L52.5224 110.661L62.2385 103.715C62.7388 103.94 63.2415 104.151 63.7418 104.344L65.7019 116.129H84.2979L86.2604 104.344C86.7607 104.151 87.2634 103.94 87.7637 103.715L97.4798 110.661L110.63 97.5026L103.689 87.7744C103.914 87.2736 104.124 86.7728 104.317 86.2695L116.088 84.3098V65.693L104.317 63.7309C103.95 62.7801 103.527 61.8292 103.053 60.8881Z" fill="#216477"/>
<path d="M33.9121 65.6906V84.3074L45.6826 86.2695C46.05 87.2203 46.4729 88.1712 46.9467 89.1123L51.2633 86.9349C50.6639 85.747 50.1612 84.5421 49.7721 83.3591L49.3153 81.9728L38.746 80.2067V69.7914L49.3153 68.0276L49.7721 66.6414C50.1612 65.4607 50.6639 64.2559 51.2633 63.0656L51.9207 61.7591L45.685 53.0228L53.0422 45.6559L61.7722 51.8978L63.0773 51.2398C64.2543 50.6446 65.4556 50.1438 66.6495 49.7495L68.0344 49.2922L69.7964 38.71H80.2037L81.9657 49.2898L83.3506 49.747C84.5445 50.1414 85.7458 50.6422 86.9228 51.2374L88.228 51.8954L96.9579 45.6535L105.765 54.4696L109.183 51.0486L97.4776 39.3342L87.7615 46.2825C87.2612 46.0575 86.7609 45.8495 86.2582 45.6535L84.298 33.8713H65.7021L63.7395 45.6535C63.2368 45.8495 62.7341 46.0575 62.2362 46.2825L52.5201 39.3342L39.3696 52.4978L46.311 62.226C46.0862 62.7268 45.876 63.2277 45.6826 63.7309L33.9121 65.6906Z" fill="#216477"/>
<path d="M77.4169 43.5487H72.583V48.3874H77.4169V43.5487Z" fill="#216477"/>
<path d="M54.4863 51.0551L51.0737 54.4711L54.4863 57.8871L57.8989 54.4711L54.4863 51.0551Z" fill="#216477"/>
<path d="M48.4137 72.5808H43.5798V77.4195H48.4137V72.5808Z" fill="#216477"/>
<path d="M54.4849 92.1118L51.0723 95.5278L54.4849 98.9438L57.8975 95.5278L54.4849 92.1118Z" fill="#216477"/>
<path d="M77.4169 101.613H72.583V106.452H77.4169V101.613Z" fill="#216477"/>
<path d="M95.5005 92.1133L92.0879 95.5293L95.5005 98.9453L98.9131 95.5293L95.5005 92.1133Z" fill="#216477"/>
<path d="M106.42 72.5808H101.586V77.4195H106.42V72.5808Z" fill="#216477"/>
<path d="M95.502 51.0565L92.0894 54.4725L95.502 57.8885L98.9146 54.4725L95.502 51.0565Z" fill="#216477"/>
<path d="M149.853 74.4147C149.727 73.9115 136.598 24.1939 75 24.1939C13.4019 24.1939 0.273114 73.9115 0.147433 74.4147L0 75.0002L0.147433 75.5857C0.273114 76.0889 13.4019 125.807 75 125.807C136.598 125.807 149.727 76.0889 149.853 75.5857L150 75.0002L149.853 74.4147ZM5.00065 75.0123C6.26229 70.8196 15.2001 44.9011 45.2402 33.9317C32.5465 43.1761 24.2443 58.118 24.2443 75.0002C24.2443 91.9962 32.6528 107.03 45.4964 116.26C15.0019 105.47 6.29129 79.4978 5.00065 75.0123ZM75 29.0326C100.322 29.0326 120.922 49.6527 120.922 75.0002C120.922 100.348 100.322 120.968 75 120.968C49.6777 120.968 29.0782 100.348 29.0782 75.0002C29.0782 49.6527 49.6777 29.0326 75 29.0326ZM104.76 116.069C117.454 106.824 125.756 91.8825 125.756 75.0002C125.756 58.0043 117.347 42.9704 104.504 33.7406C134.998 44.5309 143.706 70.5027 144.997 74.9881C143.738 79.1833 134.8 105.099 104.76 116.069Z" fill="#216477"/>
<path d="M72.5829 137.903C72.5829 139.239 71.4977 140.323 70.166 140.323H31.0503C30.0496 137.514 27.391 135.484 24.2442 135.484C20.2465 135.484 16.9933 138.74 16.9933 142.742C16.9933 146.744 20.2465 150 24.2442 150C27.391 150 30.0496 147.97 31.0503 145.161H70.166C74.1636 145.161 77.4168 141.905 77.4168 137.903V130.645H72.5829V137.903ZM24.2442 145.161C22.9124 145.161 21.8272 144.078 21.8272 142.742C21.8272 141.407 22.9124 140.323 24.2442 140.323C25.5759 140.323 26.6611 141.407 26.6611 142.742C26.6611 144.078 25.5759 145.161 24.2442 145.161Z" fill="#216477"/>
<path d="M24.2443 128.226C28.2419 128.226 31.4951 124.969 31.4951 120.968V118.549H26.6612V120.968C26.6612 122.303 25.576 123.387 24.2443 123.387H14.1318C13.1312 120.578 10.4726 118.549 7.3257 118.549C3.32809 118.549 0.0748901 121.805 0.0748901 125.807C0.0748901 129.808 3.32809 133.065 7.3257 133.065C10.4726 133.065 13.1312 131.035 14.1318 128.226H24.2443ZM7.3257 128.226C5.99397 128.226 4.90877 127.142 4.90877 125.807C4.90877 124.471 5.99397 123.387 7.3257 123.387C8.65744 123.387 9.74264 124.471 9.74264 125.807C9.74264 127.142 8.65744 128.226 7.3257 128.226Z" fill="#216477"/>
<path d="M142.674 16.9358C139.527 16.9358 136.869 18.9656 135.868 21.7745H125.756C121.758 21.7745 118.505 25.0309 118.505 29.0325V31.4519H123.339V29.0325C123.339 27.6971 124.424 26.6132 125.756 26.6132H135.868C136.869 29.4221 139.527 31.4519 142.674 31.4519C146.672 31.4519 149.925 28.1955 149.925 24.1938C149.925 20.1922 146.672 16.9358 142.674 16.9358ZM142.674 26.6132C141.342 26.6132 140.257 25.5293 140.257 24.1938C140.257 22.8584 141.342 21.7745 142.674 21.7745C144.006 21.7745 145.091 22.8584 145.091 24.1938C145.091 25.5293 144.006 26.6132 142.674 26.6132Z" fill="#216477"/>
<path d="M125.756 14.5161C129.753 14.5161 133.006 11.2597 133.006 7.25805C133.006 3.25645 129.753 0 125.756 0C122.609 0 119.95 2.02984 118.949 4.8387H79.8338C75.8361 4.8387 72.5829 8.09515 72.5829 12.0968V19.3548H77.4168V12.0968C77.4168 10.7613 78.502 9.6774 79.8338 9.6774H118.949C119.95 12.4863 122.609 14.5161 125.756 14.5161ZM125.756 4.8387C127.087 4.8387 128.173 5.92257 128.173 7.25805C128.173 8.59354 127.087 9.6774 125.756 9.6774C124.424 9.6774 123.339 8.59354 123.339 7.25805C123.339 5.92257 124.424 4.8387 125.756 4.8387Z" fill="#216477"/>
</svg>
