<svg width="150" height="150" viewBox="0 0 150 150" fill="none" xmlns="http://www.w3.org/2000/svg">
<path d="M147.581 89.5161V60.4839L132.677 56.7581C131.62 53.4121 130.27 50.1968 128.673 47.129L136.585 33.9436L116.057 13.4153L102.871 21.3266C99.8033 19.7299 96.588 18.3799 93.242 17.3226L89.5162 2.41937H60.4839L56.7581 17.3226C53.4122 18.3799 50.1968 19.7299 47.1291 21.3266L33.9436 13.4153L13.4154 33.9436L21.3267 47.129C19.7299 50.1968 18.3799 53.4121 17.3227 56.7581L2.41943 60.4839V89.5161L17.3227 93.242C18.3799 96.5879 19.7299 99.8032 21.3267 102.871L13.4154 116.056L33.9436 136.585L47.1291 128.673C50.1968 130.27 53.4122 131.62 56.7581 132.677L60.4839 147.581H89.5162L93.242 132.677C96.588 131.62 99.8033 130.27 102.871 128.673L116.057 136.585L136.585 116.056L128.673 102.871C130.27 99.8032 131.62 96.5879 132.677 93.242L147.581 89.5161ZM75.0001 125.806C46.9404 125.806 24.1936 103.06 24.1936 75C24.1936 46.9403 46.9404 24.1936 75.0001 24.1936C103.06 24.1936 125.807 46.9403 125.807 75C125.807 103.06 103.06 125.806 75.0001 125.806Z" fill="#FFCB57"/>
<path d="M91.4054 150H58.5941L54.7352 134.56C52.1949 133.694 49.6788 132.648 47.2255 131.436L33.5659 139.633L11.7021 117.769L15.1231 114.348L34.3183 133.544L47.0441 125.906L48.2465 126.532C51.2441 128.093 54.353 129.385 57.486 130.372L58.7755 130.781L62.3731 145.161H87.6264L91.2239 130.778L92.5134 130.369C95.6465 129.382 98.7554 128.09 101.753 126.53L102.955 125.903L115.681 133.541L133.541 115.681L125.903 102.956L126.53 101.753C128.088 98.7605 129.38 95.6516 130.372 92.5137L130.778 91.2218L145.161 87.6266V62.3734L130.778 58.7758L130.369 57.4863C129.382 54.3532 128.09 49.0089 126.53 46.0113L131.639 45.8398C133.114 48.6753 133.551 51.7742 134.559 54.7355L150 58.5944V91.4056L134.559 95.2645C133.693 97.8073 132.646 100.323 131.436 102.774L139.633 116.434L116.434 139.633L102.774 131.436C100.321 132.648 97.8046 133.694 95.2643 134.56L91.4054 150Z" fill="#216477"/>
<path d="M126.53 46.0113L131.639 45.8398L139.268 33.2876L132.377 26.6423L133.854 34.2721L126.53 46.0113Z" fill="#216477"/>
<path d="M19.1806 103.989C17.7073 101.156 16.4516 98.2282 15.4403 95.2645L0 91.4056V58.5944L15.4403 54.7355C16.3065 52.1952 17.3516 49.679 18.5637 47.2258L10.3669 33.5661L33.5661 10.3669L47.2258 18.5637C49.679 17.3516 52.1952 16.3065 54.7355 15.4403L58.5944 0H91.4056L95.2645 15.4403C97.8048 16.3065 100.321 17.3516 102.774 18.5637L116.434 10.3669L138.298 32.2306L134.877 35.6516L115.681 16.4565L102.956 24.0944L101.753 23.4677C98.7556 21.9073 95.6468 20.6153 92.5137 19.6282L91.2242 19.2194L87.6266 4.83871H62.3734L58.7758 19.2218L57.4863 19.6306C54.3532 20.6177 51.2444 21.9097 48.2468 23.4702L47.0444 24.0968L34.3186 16.4589L16.4589 34.3186L24.0968 47.0444L23.4702 48.2468C21.9097 51.2444 20.6177 54.3532 19.6306 57.4863L19.2218 58.7758L4.83871 62.3734V87.6266L19.2218 91.2218L19.6282 92.5137C20.6202 95.6516 21.9121 98.7605 23.4702 101.753L19.1806 103.989Z" fill="#216477"/>
<path d="M75 128.226C45.6508 128.226 21.7742 104.349 21.7742 75C21.7742 45.6508 45.6508 21.7742 75 21.7742C104.349 21.7742 128.226 45.6508 128.226 75C128.226 104.349 104.349 128.226 75 128.226ZM75 26.6129C48.3193 26.6129 26.6129 48.3193 26.6129 75C26.6129 101.681 48.3193 123.387 75 123.387C101.681 123.387 123.387 101.681 123.387 75C123.387 48.3193 101.681 26.6129 75 26.6129Z" fill="#216477"/>
<path d="M77.4193 9.67743H72.5806V14.5161H77.4193V9.67743Z" fill="#216477"/>
<path d="M30.5194 27.0991L27.0979 30.5206L30.5194 33.942L33.9408 30.5206L30.5194 27.0991Z" fill="#216477"/>
<path d="M14.5162 72.5806H9.67749V77.4193H14.5162V72.5806Z" fill="#216477"/>
<path d="M30.5198 116.058L27.0984 119.479L30.5198 122.901L33.9413 119.479L30.5198 116.058Z" fill="#216477"/>
<path d="M77.4193 135.484H72.5806V140.323H77.4193V135.484Z" fill="#216477"/>
<path d="M19.1806 46C17.7073 48.8331 16.4516 51.7605 15.4403 54.7242L0 58.5831V91.3944L15.4403 95.2532C16.3065 97.7935 17.3516 100.31 18.5637 102.763L10.3669 116.423L33.5661 139.622L47.2258 131.425C49.679 132.637 52.1952 133.682 54.7355 134.548L58.5944 149.989H91.4056L95.2645 134.548C97.8048 133.682 100.321 132.637 102.774 131.425L116.434 139.622L138.298 117.758L134.877 114.337L115.681 133.532L102.956 125.894L101.753 126.521C98.7556 128.081 95.6468 129.373 92.5137 130.36L91.2242 130.769L87.6266 145.15H62.3734L58.7758 130.767L57.4863 130.358C54.3532 129.371 51.2444 128.079 48.2468 126.519L47.0444 125.892L34.3186 133.53L16.4589 115.67L24.0968 102.944L23.4702 101.742C21.9097 98.7444 20.6177 95.6355 19.6306 92.5024L19.2218 91.2129L4.83871 87.6153V62.3621L19.2218 58.7669L19.6282 57.475C20.6202 54.3371 21.9121 51.2282 23.4702 48.2355L19.1806 46Z" fill="#216477"/>
<path d="M119.478 116.058L116.057 119.479L119.478 122.901L122.9 119.479L119.478 116.058Z" fill="#216477"/>
<path d="M140.323 72.5806H135.484V77.4193H140.323V72.5806Z" fill="#216477"/>
<path d="M119.478 27.099L116.057 30.5204L119.478 33.9419L122.9 30.5204L119.478 27.099Z" fill="#216477"/>
<path d="M89.5161 89.5161H60.4839V60.4839H89.5161V89.5161ZM65.3226 84.6774H84.6774V65.3226H65.3226V84.6774Z" fill="#216477"/>
<path d="M99.1935 50.8065H87.0967V43.5484H82.258V50.8065H77.4193V43.5484H72.5806V50.8065H67.7419V43.5484H62.9032V50.8065H50.8064V62.9032H43.5483V67.742H50.8064V72.5807H43.5483V77.4194H50.8064V82.2581H43.5483V87.0968H50.8064V99.1936H62.9032V106.452H67.7419V99.1936H72.5806V106.452H77.4193V99.1936H82.258V106.452H87.0967V99.1936H99.1935V87.0968H106.452V82.2581H99.1935V77.4194H106.452V72.5807H99.1935V67.742H106.452V62.9032H99.1935V50.8065ZM94.3548 94.3549H55.6451V55.6452H94.3548V94.3549Z" fill="#E56565"/>
<path d="M67.7419 33.871H62.9032V38.7097H67.7419V33.871Z" fill="#E56565"/>
<path d="M77.4194 33.871H72.5807V38.7097H77.4194V33.871Z" fill="#E56565"/>
<path d="M87.0968 33.871H82.2581V38.7097H87.0968V33.871Z" fill="#E56565"/>
<path d="M38.7096 82.2581H33.8708V87.0968H38.7096V82.2581Z" fill="#E56565"/>
<path d="M38.7096 72.5806H33.8708V77.4193H38.7096V72.5806Z" fill="#E56565"/>
<path d="M38.7096 62.9032H33.8708V67.7419H38.7096V62.9032Z" fill="#E56565"/>
<path d="M87.0968 111.29H82.2581V116.129H87.0968V111.29Z" fill="#E56565"/>
<path d="M77.4193 111.29H72.5806V116.129H77.4193V111.29Z" fill="#E56565"/>
<path d="M67.742 111.29H62.9033V116.129H67.742V111.29Z" fill="#E56565"/>
<path d="M116.129 62.9032H111.29V67.7419H116.129V62.9032Z" fill="#E56565"/>
<path d="M116.129 72.5806H111.29V77.4193H116.129V72.5806Z" fill="#E56565"/>
<path d="M116.129 82.2581H111.29V87.0968H116.129V82.2581Z" fill="#E56565"/>
</svg>
