<svg width="42" height="41" viewBox="0 0 42 41" fill="none" xmlns="http://www.w3.org/2000/svg">
<path d="M41.94 20.46C41.94 21.9014 40.8474 23.0305 39.6092 23.0305H37.2784L37.3294 35.859C37.3294 36.0752 37.3148 36.2914 37.2929 36.5076V37.7969C37.2929 39.5666 35.9891 41 34.3794 41H33.214C33.1339 41 33.0538 41 32.9737 40.992C32.8717 41 32.7697 41 32.6677 41H30.3005H28.5524C26.9427 41 25.6389 39.5666 25.6389 37.7969V35.875V30.75C25.6389 29.3326 24.5973 28.1875 23.3081 28.1875H18.6465C17.3572 28.1875 16.3157 29.3326 16.3157 30.75V35.875V37.7969C16.3157 39.5666 15.0119 41 13.4022 41H11.654H9.33052C9.22126 41 9.11201 40.992 9.00275 40.984C8.91534 40.992 8.82794 41 8.74053 41H7.57513C5.96541 41 4.66162 39.5666 4.66162 37.7969V28.8281C4.66162 28.7561 4.66162 28.676 4.6689 28.6039V23.0305H2.33081C1.01973 23.0305 0 21.9094 0 20.46C0 19.7393 0.218513 19.0986 0.728378 18.5381L19.404 0.640625C19.9138 0.0800781 20.4965 0 21.0064 0C21.5163 0 22.099 0.160156 22.536 0.560547L41.1388 18.5381C41.7215 19.0986 42.0128 19.7393 41.94 20.46Z" fill="#216477"/>
</svg>
