<svg width="92" height="64" viewBox="0 0 92 64" fill="none" xmlns="http://www.w3.org/2000/svg">
<path d="M35.12 0.0999966L56.99 56.44C57.83 58.6 58.76 60.1 59.78 60.94C60.86 61.72 61.82 62.14 62.66 62.2V64C60.86 63.88 58.73 63.82 56.27 63.82C53.87 63.76 51.44 63.73 48.98 63.73C46.22 63.73 43.61 63.76 41.15 63.82C38.69 63.82 36.74 63.88 35.3 64V62.2C38.36 62.08 40.28 61.57 41.06 60.67C41.9 59.71 41.72 57.7 40.52 54.64L25.22 12.79L26.84 10.45L13.16 46.09C11.84 49.39 11.03 52.09 10.73 54.19C10.49 56.29 10.64 57.91 11.18 59.05C11.78 60.19 12.71 61 13.97 61.48C15.29 61.9 16.85 62.14 18.65 62.2V64C16.67 63.88 14.78 63.82 12.98 63.82C11.18 63.76 9.35 63.73 7.49 63.73C6.17 63.73 4.91 63.76 3.71 63.82C2.57 63.82 1.55 63.88 0.65 64V62.2C1.91 61.96 3.2 61.15 4.52 59.77C5.84 58.39 7.13 56.05 8.39 52.75L28.91 0.0999966C29.87 0.159996 30.89 0.189995 31.97 0.189995C33.11 0.189995 34.16 0.159996 35.12 0.0999966ZM41.42 38.08V39.88H14.6L15.5 38.08H41.42ZM91.1415 0.28V2.08C89.2215 2.14 87.7515 2.38 86.7315 2.8C85.7715 3.16 85.1415 3.88 84.8415 4.96C84.5415 5.98 84.3915 7.59999 84.3915 9.81999V54.46C84.3915 56.62 84.5415 58.24 84.8415 59.32C85.2015 60.4 85.8615 61.12 86.8215 61.48C87.7815 61.84 89.2215 62.08 91.1415 62.2V64C89.5215 63.88 87.4815 63.82 85.0215 63.82C82.5615 63.76 80.0715 63.73 77.5515 63.73C74.6115 63.73 71.8815 63.76 69.3615 63.82C66.9015 63.82 64.8915 63.88 63.3315 64V62.2C65.2515 62.08 66.6915 61.84 67.6515 61.48C68.6115 61.12 69.2415 60.4 69.5415 59.32C69.9015 58.24 70.0815 56.62 70.0815 54.46V9.81999C70.0815 7.59999 69.9015 5.98 69.5415 4.96C69.2415 3.88 68.5815 3.16 67.5615 2.8C66.6015 2.38 65.1915 2.14 63.3315 2.08V0.28C64.8915 0.339999 66.9015 0.399998 69.3615 0.459997C71.8815 0.519997 74.6115 0.549996 77.5515 0.549996C80.0715 0.549996 82.5615 0.519997 85.0215 0.459997C87.4815 0.399998 89.5215 0.339999 91.1415 0.28Z" fill="#FF9900"/>
</svg>
