<svg width="260" height="172" viewBox="0 0 260 172" fill="none" xmlns="http://www.w3.org/2000/svg">
<rect width="260" height="160" fill="#15120E"/>
<path d="M117.12 41.1L138.99 97.44C139.83 99.6 140.76 101.1 141.78 101.94C142.86 102.72 143.82 103.14 144.66 103.2V105C142.86 104.88 140.73 104.82 138.27 104.82C135.87 104.76 133.44 104.73 130.98 104.73C128.22 104.73 125.61 104.76 123.15 104.82C120.69 104.82 118.74 104.88 117.3 105V103.2C120.36 103.08 122.28 102.57 123.06 101.67C123.9 100.71 123.72 98.7 122.52 95.64L107.22 53.79L108.84 51.45L95.16 87.09C93.84 90.39 93.03 93.09 92.73 95.19C92.49 97.29 92.64 98.91 93.18 100.05C93.78 101.19 94.71 102 95.97 102.48C97.29 102.9 98.85 103.14 100.65 103.2V105C98.67 104.88 96.78 104.82 94.98 104.82C93.18 104.76 91.35 104.73 89.49 104.73C88.17 104.73 86.91 104.76 85.71 104.82C84.57 104.82 83.55 104.88 82.65 105V103.2C83.91 102.96 85.2 102.15 86.52 100.77C87.84 99.39 89.13 97.05 90.39 93.75L110.91 41.1C111.87 41.16 112.89 41.19 113.97 41.19C115.11 41.19 116.16 41.16 117.12 41.1ZM123.42 79.08V80.88H96.6L97.5 79.08H123.42ZM173.141 41.28V43.08C171.221 43.14 169.751 43.38 168.731 43.8C167.771 44.16 167.141 44.88 166.841 45.96C166.541 46.98 166.391 48.6 166.391 50.82V95.46C166.391 97.62 166.541 99.24 166.841 100.32C167.201 101.4 167.861 102.12 168.821 102.48C169.781 102.84 171.221 103.08 173.141 103.2V105C171.521 104.88 169.481 104.82 167.021 104.82C164.561 104.76 162.071 104.73 159.551 104.73C156.611 104.73 153.881 104.76 151.361 104.82C148.901 104.82 146.891 104.88 145.331 105V103.2C147.251 103.08 148.691 102.84 149.651 102.48C150.611 102.12 151.241 101.4 151.541 100.32C151.901 99.24 152.081 97.62 152.081 95.46V50.82C152.081 48.6 151.901 46.98 151.541 45.96C151.241 44.88 150.581 44.16 149.561 43.8C148.601 43.38 147.191 43.14 145.331 43.08V41.28C146.891 41.34 148.901 41.4 151.361 41.46C153.881 41.52 156.611 41.55 159.551 41.55C162.071 41.55 164.561 41.52 167.021 41.46C169.481 41.4 171.521 41.34 173.141 41.28Z" fill="#FF9900"/>
<path d="M67.692 157.516C66.9 158.38 66.012 159.1 65.028 159.676C64.068 160.228 63.036 160.504 61.932 160.504C60.828 160.504 59.952 160.312 59.304 159.928C58.656 159.544 58.188 159.04 57.9 158.416C57.612 157.768 57.468 157.096 57.468 156.4C57.468 155.224 57.804 154.012 58.476 152.764C59.148 151.516 60.024 150.28 61.104 149.056C62.208 147.808 63.408 146.62 64.704 145.492C66 144.364 67.26 143.356 68.484 142.468L69.06 142.36C68.676 142.504 68.268 142.708 67.836 142.972C67.404 143.212 66.984 143.464 66.576 143.728C66.168 143.968 65.772 144.184 65.388 144.376C65.004 144.544 64.644 144.628 64.308 144.628C63.852 144.628 63.456 144.484 63.12 144.196C62.808 143.884 62.448 143.728 62.04 143.728C61.656 143.728 61.332 143.896 61.068 144.232C60.804 144.544 60.54 145.12 60.276 145.96L59.844 147.292H59.16L59.988 144.664C60.468 143.248 60.984 142.288 61.536 141.784C62.112 141.256 62.712 140.992 63.336 140.992C63.792 140.992 64.176 141.112 64.488 141.352C64.824 141.592 65.148 141.832 65.46 142.072C65.796 142.288 66.192 142.396 66.648 142.396C67.224 142.396 67.74 142.312 68.196 142.144C68.652 141.952 69.096 141.664 69.528 141.28L70.032 140.596L70.788 140.956C69.54 141.988 68.328 143.092 67.152 144.268C66 145.444 64.956 146.68 64.02 147.976C63.108 149.248 62.376 150.58 61.824 151.972C61.272 153.34 60.996 154.744 60.996 156.184C60.996 157.384 61.176 158.224 61.536 158.704C61.896 159.184 62.376 159.424 62.976 159.424C63.696 159.424 64.452 159.208 65.244 158.776C66.036 158.32 66.804 157.672 67.548 156.832L67.692 157.516ZM71.688 159.46C72.864 159.46 73.884 159.124 74.748 158.452C75.636 157.78 76.368 156.916 76.944 155.86C77.52 154.78 77.952 153.628 78.24 152.404C78.552 151.156 78.732 149.968 78.78 148.84C78.828 147.688 78.744 146.716 78.528 145.924C78.072 145.828 77.58 145.66 77.052 145.42C76.524 145.156 76.068 144.808 75.684 144.376C75.3 143.92 75.108 143.368 75.108 142.72C75.108 142.096 75.276 141.652 75.612 141.388C75.948 141.124 76.284 140.992 76.62 140.992C76.98 140.992 77.292 141.1 77.556 141.316C77.844 141.532 78.096 141.832 78.312 142.216C78.528 142.6 78.72 143.056 78.888 143.584C79.056 144.088 79.188 144.64 79.284 145.24C79.524 146.32 79.62 147.532 79.572 148.876C79.524 150.22 79.32 151.576 78.96 152.944C78.6 154.288 78.06 155.536 77.34 156.688C76.62 157.84 75.708 158.764 74.604 159.46C73.524 160.156 72.228 160.504 70.716 160.504C69.948 160.504 69.24 160.36 68.592 160.072C67.944 159.784 67.416 159.28 67.008 158.56C66.624 157.84 66.432 156.844 66.432 155.572C66.432 154.516 66.6 153.484 66.936 152.476C67.296 151.468 67.752 150.556 68.304 149.74C68.856 148.924 69.432 148.276 70.032 147.796C70.632 147.316 71.184 147.076 71.688 147.076C72.048 147.076 72.312 147.208 72.48 147.472C72.672 147.736 72.792 148.072 72.84 148.48C72.912 148.864 72.948 149.236 72.948 149.596C72.948 150.892 72.588 152.212 71.868 153.556C71.172 154.9 70.08 156.136 68.592 157.264L68.412 156.616C69.54 155.728 70.44 154.648 71.112 153.376C71.784 152.104 72.12 150.832 72.12 149.56C72.12 149.08 72.072 148.684 71.976 148.372C71.88 148.036 71.7 147.868 71.436 147.868C71.052 147.868 70.62 148.18 70.14 148.804C69.66 149.404 69.24 150.184 68.88 151.144C68.544 152.08 68.376 153.076 68.376 154.132C68.376 154.996 68.472 155.836 68.664 156.652C68.88 157.468 69.228 158.14 69.708 158.668C70.212 159.196 70.872 159.46 71.688 159.46ZM92.5885 141.712C91.8205 141.712 91.0765 142.024 90.3565 142.648C89.6605 143.248 89.0125 144.076 88.4125 145.132C87.8365 146.164 87.3205 147.328 86.8645 148.624C86.4325 149.92 86.0965 151.264 85.8565 152.656C85.6165 154.048 85.4965 155.38 85.4965 156.652C85.4965 157.732 85.6645 158.524 86.0005 159.028C86.3605 159.532 86.8765 159.784 87.5485 159.784C88.3165 159.784 89.0485 159.484 89.7445 158.884C90.4645 158.26 91.1245 157.432 91.7245 156.4C92.3245 155.344 92.8405 154.168 93.2725 152.872C93.7045 151.576 94.0405 150.244 94.2805 148.876C94.5205 147.484 94.6405 146.14 94.6405 144.844C94.6405 143.74 94.4725 142.948 94.1365 142.468C93.8005 141.964 93.2845 141.712 92.5885 141.712ZM82.4005 154.852C82.4005 153.796 82.5445 152.644 82.8325 151.396C83.1205 150.148 83.5525 148.912 84.1285 147.688C84.7045 146.464 85.4005 145.348 86.2165 144.34C87.0565 143.332 88.0285 142.528 89.1325 141.928C90.2365 141.304 91.4605 140.992 92.8045 140.992C94.2925 140.992 95.4805 141.46 96.3685 142.396C97.2805 143.308 97.7365 144.724 97.7365 146.644C97.7365 147.7 97.5925 148.852 97.3045 150.1C97.0165 151.348 96.5845 152.584 96.0085 153.808C95.4325 155.032 94.7245 156.148 93.8845 157.156C93.0685 158.164 92.1085 158.98 91.0045 159.604C89.9005 160.204 88.6765 160.504 87.3325 160.504C85.8445 160.504 84.6445 160.036 83.7325 159.1C82.8445 158.164 82.4005 156.748 82.4005 154.852ZM103.579 160H100.447L104.767 144.556C105.007 143.74 105.079 143.164 104.983 142.828C104.911 142.492 104.671 142.324 104.263 142.324C103.735 142.324 103.255 142.6 102.823 143.152C102.391 143.704 101.935 144.652 101.455 145.996L100.987 147.328H100.303L101.203 144.7C101.563 143.692 101.983 142.924 102.463 142.396C102.967 141.868 103.483 141.508 104.011 141.316C104.563 141.1 105.079 140.992 105.559 140.992C106.279 140.992 106.783 141.148 107.071 141.46C107.383 141.772 107.551 142.18 107.575 142.684C107.623 143.188 107.587 143.74 107.467 144.34C107.371 144.916 107.251 145.48 107.107 146.032L103.579 160ZM112.831 141.892C112.279 141.892 111.703 142.156 111.103 142.684C110.527 143.188 109.927 143.932 109.303 144.916C108.703 145.876 108.091 147.04 107.467 148.408C106.867 149.752 106.267 151.252 105.667 152.908C105.091 154.564 104.527 156.352 103.975 158.272L104.875 153.664C105.667 151.312 106.399 149.332 107.071 147.724C107.767 146.116 108.451 144.82 109.123 143.836C109.795 142.828 110.479 142.108 111.175 141.676C111.895 141.22 112.651 140.992 113.443 140.992C114.115 140.992 114.631 141.184 114.991 141.568C115.375 141.952 115.567 142.444 115.567 143.044C115.567 143.524 115.447 143.968 115.207 144.376C114.967 144.76 114.655 145.072 114.271 145.312C113.911 145.528 113.503 145.636 113.047 145.636C112.639 145.636 112.291 145.528 112.003 145.312C111.739 145.072 111.607 144.748 111.607 144.34C111.607 143.956 111.679 143.62 111.823 143.332C111.967 143.02 112.159 142.756 112.399 142.54C112.639 142.324 112.915 142.156 113.227 142.036C113.179 141.988 113.119 141.952 113.047 141.928C112.999 141.904 112.927 141.892 112.831 141.892ZM117.359 160H114.227L121.355 135.988C121.595 135.172 121.559 134.572 121.247 134.188C120.959 133.804 120.227 133.612 119.051 133.612L119.267 132.856C120.587 132.832 121.775 132.7 122.831 132.46C123.887 132.196 124.859 131.836 125.747 131.38L117.359 160ZM126.647 157.696C126.551 158.224 126.551 158.608 126.647 158.848C126.743 159.064 126.983 159.172 127.367 159.172C127.847 159.172 128.291 158.908 128.699 158.38C129.131 157.828 129.575 156.868 130.031 155.5L130.463 154.168H131.147L130.283 156.796C129.971 157.756 129.587 158.512 129.131 159.064C128.699 159.592 128.207 159.964 127.655 160.18C127.127 160.396 126.575 160.504 125.999 160.504C125.231 160.504 124.607 160.24 124.127 159.712C123.647 159.16 123.539 158.284 123.803 157.084L124.451 153.988C124.739 152.596 124.583 151.576 123.983 150.928C123.407 150.256 122.111 149.848 120.095 149.704V149.56C121.007 149.488 121.931 149.488 122.867 149.56C123.827 149.632 124.679 149.836 125.423 150.172C126.167 150.484 126.731 150.964 127.115 151.612C127.499 152.236 127.583 153.064 127.367 154.096L126.647 157.696ZM129.815 141.748C129.527 141.748 129.275 141.796 129.059 141.892C128.867 141.988 128.675 142.108 128.483 142.252C128.027 142.612 127.643 143.104 127.331 143.728C127.019 144.328 126.707 144.976 126.395 145.672C126.083 146.368 125.699 147.028 125.243 147.652C124.787 148.252 124.187 148.744 123.443 149.128C122.699 149.512 121.727 149.692 120.527 149.668L120.167 149.704L120.239 149.308C121.415 149.236 122.351 148.996 123.047 148.588C123.767 148.18 124.331 147.676 124.739 147.076C125.171 146.476 125.531 145.852 125.819 145.204C126.107 144.532 126.407 143.896 126.719 143.296C127.031 142.696 127.439 142.204 127.943 141.82C128.375 141.484 128.759 141.268 129.095 141.172C129.455 141.052 129.791 140.992 130.103 140.992C130.943 140.992 131.519 141.208 131.831 141.64C132.143 142.048 132.275 142.54 132.227 143.116C132.203 143.404 132.119 143.728 131.975 144.088C131.831 144.448 131.603 144.76 131.291 145.024C131.003 145.288 130.619 145.42 130.139 145.42C129.611 145.42 129.239 145.264 129.023 144.952C128.807 144.616 128.711 144.256 128.735 143.872C128.759 143.536 128.879 143.176 129.095 142.792C129.311 142.384 129.575 142.036 129.887 141.748C129.863 141.748 129.851 141.748 129.851 141.748C129.851 141.748 129.839 141.748 129.815 141.748ZM135.202 159.46C135.394 159.556 135.598 159.64 135.814 159.712C136.054 159.76 136.402 159.784 136.858 159.784C137.914 159.784 138.778 159.472 139.45 158.848C140.146 158.2 140.494 157.276 140.494 156.076C140.494 155.332 140.35 154.6 140.062 153.88C139.798 153.136 139.318 152.284 138.622 151.324C138.07 150.556 137.542 149.776 137.038 148.984C136.534 148.168 136.282 147.208 136.282 146.104C136.282 145.072 136.534 144.184 137.038 143.44C137.542 142.672 138.214 142.072 139.054 141.64C139.918 141.208 140.854 140.992 141.862 140.992C142.558 140.992 143.242 141.076 143.914 141.244C144.586 141.412 145.138 141.724 145.57 142.18C146.026 142.612 146.254 143.26 146.254 144.124C146.254 144.34 146.194 144.604 146.074 144.916C145.978 145.204 145.81 145.456 145.57 145.672C145.33 145.888 145.006 145.996 144.598 145.996C144.214 145.996 143.878 145.864 143.59 145.6C143.302 145.312 143.158 144.94 143.158 144.484C143.158 144.052 143.242 143.644 143.41 143.26C143.602 142.852 143.854 142.456 144.166 142.072C143.71 141.784 143.11 141.64 142.366 141.64C141.478 141.64 140.734 141.94 140.134 142.54C139.534 143.14 139.234 143.98 139.234 145.06C139.234 145.612 139.318 146.104 139.486 146.536C139.654 146.944 139.894 147.376 140.206 147.832C140.542 148.288 140.938 148.864 141.394 149.56C141.994 150.472 142.498 151.348 142.906 152.188C143.314 153.028 143.518 153.916 143.518 154.852C143.518 155.956 143.23 156.94 142.654 157.804C142.102 158.644 141.358 159.304 140.422 159.784C139.486 160.264 138.454 160.504 137.326 160.504C136.51 160.504 135.73 160.384 134.986 160.144C134.242 159.904 133.63 159.532 133.15 159.028C132.694 158.5 132.466 157.804 132.466 156.94C132.466 156.604 132.574 156.256 132.79 155.896C132.982 155.512 133.342 155.32 133.87 155.32C134.446 155.32 134.854 155.56 135.094 156.04C135.334 156.496 135.454 157.012 135.454 157.588C135.454 157.972 135.418 158.32 135.346 158.632C135.298 158.92 135.25 159.196 135.202 159.46ZM149.597 160H146.465L153.593 135.988C153.833 135.172 153.797 134.572 153.485 134.188C153.197 133.804 152.465 133.612 151.289 133.612L151.505 132.856C152.825 132.832 154.013 132.7 155.069 132.46C156.125 132.196 157.097 131.836 157.985 131.38L149.597 160ZM150.605 154.672C151.517 152.152 152.381 150.016 153.197 148.264C154.037 146.512 154.865 145.108 155.681 144.052C156.497 142.972 157.337 142.192 158.201 141.712C159.065 141.232 159.965 140.992 160.901 140.992C162.029 140.992 162.797 141.268 163.205 141.82C163.637 142.348 163.829 143.032 163.781 143.872C163.733 144.712 163.565 145.564 163.277 146.428L159.785 156.94C159.593 157.564 159.509 158.092 159.533 158.524C159.557 158.956 159.833 159.172 160.361 159.172C160.817 159.172 161.261 158.92 161.693 158.416C162.149 157.912 162.629 156.94 163.133 155.5L163.601 154.168H164.285L163.385 156.796C163.049 157.804 162.629 158.572 162.125 159.1C161.645 159.628 161.129 159.988 160.577 160.18C160.049 160.396 159.533 160.504 159.029 160.504C158.069 160.504 157.397 160.288 157.013 159.856C156.629 159.424 156.461 158.824 156.509 158.056C156.581 157.288 156.773 156.424 157.085 155.464L160.505 145.168C160.625 144.808 160.733 144.388 160.829 143.908C160.925 143.428 160.901 143.02 160.757 142.684C160.637 142.324 160.289 142.144 159.713 142.144C159.113 142.144 158.465 142.42 157.769 142.972C157.097 143.5 156.401 144.268 155.681 145.276C154.961 146.284 154.253 147.496 153.557 148.912C152.861 150.328 152.189 151.912 151.541 153.664C150.917 155.392 150.329 157.264 149.777 159.28L150.605 154.672ZM177.034 141.712C176.266 141.712 175.522 142.024 174.802 142.648C174.106 143.248 173.458 144.076 172.858 145.132C172.282 146.164 171.766 147.328 171.31 148.624C170.878 149.92 170.542 151.264 170.302 152.656C170.062 154.048 169.942 155.38 169.942 156.652C169.942 157.732 170.11 158.524 170.446 159.028C170.806 159.532 171.322 159.784 171.994 159.784C172.762 159.784 173.494 159.484 174.19 158.884C174.91 158.26 175.57 157.432 176.17 156.4C176.77 155.344 177.286 154.168 177.718 152.872C178.15 151.576 178.486 150.244 178.726 148.876C178.966 147.484 179.086 146.14 179.086 144.844C179.086 143.74 178.918 142.948 178.582 142.468C178.246 141.964 177.73 141.712 177.034 141.712ZM166.846 154.852C166.846 153.796 166.99 152.644 167.278 151.396C167.566 150.148 167.998 148.912 168.574 147.688C169.15 146.464 169.846 145.348 170.662 144.34C171.502 143.332 172.474 142.528 173.578 141.928C174.682 141.304 175.906 140.992 177.25 140.992C178.738 140.992 179.926 141.46 180.814 142.396C181.726 143.308 182.182 144.724 182.182 146.644C182.182 147.7 182.038 148.852 181.75 150.1C181.462 151.348 181.03 152.584 180.454 153.808C179.878 155.032 179.17 156.148 178.33 157.156C177.514 158.164 176.554 158.98 175.45 159.604C174.346 160.204 173.122 160.504 171.778 160.504C170.29 160.504 169.09 160.036 168.178 159.1C167.29 158.164 166.846 156.748 166.846 154.852ZM197.348 142.144C196.724 142.144 196.016 142.588 195.224 143.476C194.456 144.34 193.664 145.528 192.848 147.04C192.056 148.528 191.3 150.208 190.58 152.08C189.884 153.952 189.296 155.896 188.816 157.912L189.464 154.024C190.496 150.88 191.492 148.36 192.452 146.464C193.412 144.544 194.372 143.152 195.332 142.288C196.316 141.424 197.336 140.992 198.392 140.992C199.52 140.992 200.42 141.412 201.092 142.252C201.788 143.092 202.136 144.364 202.136 146.068C202.136 147.148 201.98 148.336 201.668 149.632C201.38 150.928 200.936 152.212 200.336 153.484C199.76 154.756 199.04 155.932 198.176 157.012C197.336 158.068 196.364 158.92 195.26 159.568C194.156 160.192 192.932 160.504 191.588 160.504C190.868 160.504 190.22 160.288 189.644 159.856C189.092 159.424 188.72 158.8 188.528 157.984L188.816 157.264C189.152 158.152 189.536 158.776 189.968 159.136C190.424 159.496 190.952 159.676 191.552 159.676C192.368 159.676 193.148 159.364 193.892 158.74C194.636 158.092 195.32 157.24 195.944 156.184C196.568 155.128 197.108 153.964 197.564 152.692C198.044 151.396 198.404 150.112 198.644 148.84C198.908 147.544 199.04 146.356 199.04 145.276C199.04 144.22 198.884 143.44 198.572 142.936C198.284 142.408 197.876 142.144 197.348 142.144ZM191.948 135.988C192.524 135.964 193.088 135.916 193.64 135.844C194.216 135.772 194.744 135.652 195.224 135.484L187.304 163.168C187.016 164.176 187.16 164.86 187.736 165.22C188.312 165.58 189.14 165.76 190.22 165.76L190.004 166.516C189.524 166.492 188.84 166.456 187.952 166.408C187.088 166.384 186.164 166.372 185.18 166.372C184.436 166.372 183.68 166.384 182.912 166.408C182.144 166.456 181.568 166.492 181.184 166.516L181.4 165.76C182.264 165.76 182.888 165.592 183.272 165.256C183.656 164.944 183.968 164.368 184.208 163.528L191.948 135.988ZM184.46 147.148C185.396 146.236 186.272 145.336 187.088 144.448C187.904 143.536 188.696 142.456 189.464 141.208C190.232 139.96 191.012 138.388 191.804 136.492L191.912 137.068C191.384 138.7 190.748 140.14 190.004 141.388C189.284 142.612 188.492 143.728 187.628 144.736C186.764 145.72 185.84 146.68 184.856 147.616L184.46 147.148Z" fill="white"/>
</svg>
