<svg width="48" height="42" viewBox="0 0 48 42" fill="none" xmlns="http://www.w3.org/2000/svg">
<path d="M24 41.7001C12.6 41.7001 3.30005 32.4001 3.30005 21.0001C3.30005 16.0001 5.10005 11.1 8.50005 7.30005L10.7 9.30005C7.80005 12.5 6.30005 16.7001 6.30005 21.0001C6.30005 30.8001 14.2 38.7001 24 38.7001C26.6 38.7001 29.1 38.2001 31.4 37.1001L32.6 39.8C29.9 41.1 27 41.7001 24 41.7001Z" fill="#134563"/>
<path d="M39.3999 34.8L37.1999 32.8C40.0999 29.6 41.6999 25.4001 41.6999 21.0001C41.6999 11.2001 33.7999 3.30005 23.9999 3.30005C21.3999 3.30005 18.8999 3.80006 16.5999 4.90005L15.3999 2.20007C18.0999 1.00007 20.9999 0.300049 23.9999 0.300049C35.3999 0.300049 44.6999 9.60006 44.6999 21.0001C44.6999 26.1001 42.7999 31 39.3999 34.8Z" fill="#134563"/>
<path d="M12.8 19.4001H9.6V9.80008H0V6.6001H12.8V19.4001Z" fill="#134563"/>
<path d="M48 35.4001H35.2V22.6001H38.4V32.2001H48V35.4001Z" fill="#134563"/>
</svg>
